<svg width="24" height="24" viewBox="0 0 24 24" fill="none" xmlns="http://www.w3.org/2000/svg">
<path d="M16.8828 13.911L17.2238 12.212C17.2547 12.0795 17.2521 11.9414 17.2163 11.8101C17.1806 11.6788 17.1127 11.5585 17.0188 11.46C16.923 11.362 16.8028 11.2913 16.6706 11.2553C16.5384 11.2193 16.399 11.2192 16.2668 11.255L14.5588 11.587L13.1818 10.21L15.2718 8.41299C15.9363 7.82036 16.3394 6.98881 16.3928 6.09999V2.19299H18.3458C18.6048 2.19299 18.8531 2.09011 19.0363 1.90698C19.2194 1.72385 19.3223 1.47547 19.3223 1.21649C19.3223 0.957506 19.2194 0.70913 19.0363 0.526C18.8531 0.342871 18.6048 0.23999 18.3458 0.23999H5.65278C5.3992 0.248106 5.15873 0.354543 4.98223 0.536786C4.80572 0.71903 4.70703 0.962785 4.70703 1.21649C4.70703 1.4702 4.80572 1.71395 4.98223 1.89619C5.15873 2.07844 5.3992 2.18487 5.65278 2.19299H7.60578V6.09899C7.62217 6.54349 7.7264 6.98034 7.91245 7.38436C8.0985 7.78838 8.36268 8.15157 8.68978 8.45299L10.7798 10.249L9.40278 11.626L7.69278 11.294C7.56067 11.2584 7.42146 11.2586 7.28946 11.2946C7.15747 11.3306 7.03745 11.4012 6.94178 11.499C6.8479 11.5975 6.78 11.7178 6.74422 11.8491C6.70843 11.9804 6.70587 12.1185 6.73678 12.251L7.11678 13.911L5.16378 15.864C4.98174 16.0469 4.87955 16.2944 4.87955 16.5525C4.87955 16.8105 4.98174 17.0581 5.16378 17.241L7.11778 19.194L6.77578 20.903C6.74577 21.0355 6.74877 21.1734 6.78451 21.3046C6.82026 21.4357 6.88765 21.556 6.98078 21.655C7.18078 21.845 7.46278 21.923 7.73278 21.86L9.44178 21.518L11.3458 23.471C11.4366 23.5624 11.5446 23.6349 11.6635 23.6844C11.7824 23.7338 11.91 23.7593 12.0388 23.7593C12.1676 23.7593 12.2951 23.7338 12.4141 23.6844C12.533 23.6349 12.641 23.5624 12.7318 23.471L14.6368 21.518L16.3448 21.86C16.4773 21.8909 16.6154 21.8883 16.7467 21.8526C16.878 21.8168 16.9983 21.7489 17.0968 21.655C17.1899 21.556 17.2573 21.4357 17.293 21.3046C17.3288 21.1734 17.3318 21.0355 17.3018 20.903L16.8818 19.155L18.8358 17.202C19.006 17.0208 19.1008 16.7816 19.1008 16.533C19.1008 16.2844 19.006 16.0452 18.8358 15.864L16.8828 13.911ZM14.4408 16.557C14.4408 18.437 12.4068 19.611 10.7788 18.672C9.15178 17.732 9.15178 15.382 10.7788 14.443C11.1498 14.2283 11.5709 14.1152 11.9996 14.1149C12.4282 14.1147 12.8494 14.2274 13.2207 14.4418C13.5919 14.6561 13.9002 14.9644 14.1144 15.3358C14.3286 15.7071 14.4411 16.1283 14.4408 16.557ZM9.95978 6.96799C9.73328 6.73102 9.59249 6.42515 9.55978 6.09899V2.43699C9.55978 2.30199 9.66878 2.19299 9.80378 2.19299H11.7568C11.8918 2.19299 12.0008 2.30299 12.0008 2.43699V8.18999C12.0009 8.23649 11.9869 8.28192 11.9606 8.3203C11.9344 8.35868 11.8971 8.38821 11.8538 8.40499C11.8165 8.43036 11.7724 8.44392 11.7273 8.44392C11.6822 8.44392 11.6381 8.43036 11.6008 8.40499L9.95978 6.96799Z" fill="#0B0B0F"/>
</svg>
