<svg width="16" height="16" viewBox="0 0 16 16" fill="none" xmlns="http://www.w3.org/2000/svg">
<path d="M7.26 2.00497C7.22604 2.00409 7.19225 2.01006 7.16064 2.0225C7.12903 2.03494 7.10025 2.05361 7.07599 2.0774C7.05174 2.10119 7.03251 2.1296 7.01946 2.16097C7.00641 2.19233 6.99979 2.226 7 2.25997V3.24997C7 3.38997 7.11 3.49997 7.25 3.49997V3.50997C10.365 3.62997 12.87 6.13497 12.99 9.24997H13C13 9.38997 13.11 9.49997 13.25 9.49997H14.24C14.385 9.49997 14.5 9.37997 14.495 9.23997C14.36 5.30997 11.19 2.13997 7.26 2.00497ZM7.26 4.50497C7.22617 4.50457 7.19259 4.51086 7.16119 4.52347C7.12979 4.53609 7.1012 4.55477 7.07704 4.57847C7.05288 4.60216 7.03364 4.63039 7.02042 4.66153C7.0072 4.69268 7.00026 4.72613 7 4.75997V5.74997C7 5.88997 7.11 5.99997 7.25 5.99997V6.01497C8.985 6.12997 10.37 7.51497 10.485 9.24997H10.5C10.5 9.38997 10.61 9.49997 10.75 9.49997H11.74C11.88 9.49997 12 9.37997 11.995 9.23997C11.86 6.68997 9.81 4.63997 7.26 4.50497ZM2.75 4.99997C2.61 4.99997 2.5 5.10997 2.5 5.24997V10.75C2.5 12.54 3.96 14 5.75 14C7.54 14 9 12.54 9 10.75C9 8.95997 7.54 7.49997 5.75 7.49997C5.61 7.49997 5.5 7.60997 5.5 7.74997V9.24997C5.5 9.38997 5.61 9.49997 5.75 9.49997C6.08152 9.49997 6.39946 9.63166 6.63388 9.86608C6.8683 10.1005 7 10.4184 7 10.75C7 11.0815 6.8683 11.3994 6.63388 11.6339C6.39946 11.8683 6.08152 12 5.75 12C5.58585 12 5.4233 11.9676 5.27165 11.9048C5.11999 11.842 4.98219 11.7499 4.86612 11.6339C4.75004 11.5178 4.65797 11.38 4.59515 11.2283C4.53233 11.0767 4.5 10.9141 4.5 10.75V5.24997C4.5 5.10997 4.39 4.99997 4.25 4.99997H2.75Z" fill="#0B0B0F"/>
</svg>
