<svg width="20" height="20" viewBox="0 0 20 20" fill="none" xmlns="http://www.w3.org/2000/svg">
<path d="M0.0338954 12.6552C0.102605 12.9113 0.270226 13.1297 0.499895 13.2622L2.4089 14.3662V16.5652C2.4089 16.8304 2.51425 17.0848 2.70179 17.2723C2.88933 17.4599 3.14368 17.5652 3.4089 17.5652H5.6079L6.7119 19.4752C6.84451 19.7049 7.06292 19.8725 7.3191 19.9411C7.57527 20.0098 7.84822 19.9738 8.0779 19.8412L9.9869 18.7382L11.8969 19.8422C12.1266 19.9748 12.3995 20.0108 12.6557 19.9421C12.9119 19.8735 13.1303 19.7059 13.2629 19.4762L14.3659 17.5672H16.5649C16.8301 17.5672 17.0845 17.4619 17.272 17.2743C17.4595 17.0868 17.5649 16.8324 17.5649 16.5672V14.3682L19.4739 13.2642C19.7036 13.1316 19.8712 12.9132 19.9398 12.657C20.0084 12.4008 19.9725 12.1279 19.8399 11.8982L18.7369 9.98822L19.8409 8.07922C19.9735 7.84954 20.0094 7.5766 19.9408 7.32042C19.8722 7.06425 19.7046 6.84584 19.4749 6.71322L17.5659 5.60922V3.41022C17.5659 3.14501 17.4605 2.89065 17.273 2.70312C17.0855 2.51558 16.8311 2.41022 16.5659 2.41022H14.3669L13.2639 0.501223C13.1314 0.271554 12.913 0.103932 12.6569 0.0352227C12.53 0.0012243 12.3977 -0.00744325 12.2674 0.00971505C12.1372 0.0268733 12.0116 0.0695214 11.8979 0.135223L9.9869 1.23822L8.0779 0.134223C7.84834 0.00153719 7.57548 -0.0345496 7.31932 0.0338969C7.06316 0.102343 6.84468 0.269719 6.7119 0.499223L5.6079 2.40922H3.4089C3.14368 2.40922 2.88933 2.51458 2.70179 2.70212C2.51425 2.88965 2.4089 3.14401 2.4089 3.40922V5.60822L0.499895 6.71322C0.270392 6.846 0.103016 7.06449 0.0345694 7.32065C-0.0338771 7.57681 0.00220993 7.84967 0.134895 8.07922L1.2379 9.98822L0.133896 11.8972C0.0014746 12.1267 -0.0344907 12.3993 0.0338954 12.6552Z" fill="#0B0B0F"/>
</svg>
