<svg width="32" height="32" viewBox="0 0 32 32" fill="none" xmlns="http://www.w3.org/2000/svg">
<path d="M10.0029 0H13.4403V1.43733H11.4403V2.87467H13.4403V4.312H10.0029V0ZM14.1269 0H17.5656V1.25067H15.5656V1.5H17.5656V4.37467H14.1269V3.06267H16.1269V2.812H14.1269V0ZM18.2536 0H21.6896V1.25067H19.6896V1.5H21.6896V4.37467H18.2536V3.06267H20.2536V2.812H18.2536V0Z" fill="#0B0B0F"/>
<path fill-rule="evenodd" clip-rule="evenodd" d="M15.988 32L6.72933 29.4293L4 6.28931H28L25.272 29.4266L15.988 32ZM9.396 16.764L9.65067 19.6013H19.4867L19.1573 23.2813L15.992 24.1373H15.9893L12.8293 23.284L12.6267 21.0213H9.77733L10.1747 25.4773L15.988 27.0906L21.8107 25.4773L22.52 17.5253L22.5893 16.764L23.1013 11.0186H8.88533L9.144 13.8573H19.992L19.7333 16.764H9.396Z" fill="#0B0B0F"/>
</svg>
