<svg width="32" height="32" viewBox="0 0 32 32" fill="none" xmlns="http://www.w3.org/2000/svg">
<mask id="mask0_905_1625" style="mask-type:luminance" maskUnits="userSpaceOnUse" x="0" y="0" width="32" height="32">
<path d="M0 0H32V32H0V0Z" fill="white"/>
</mask>
<g mask="url(#mask0_905_1625)">
<path fill-rule="evenodd" clip-rule="evenodd" d="M11.2198 0C7.9571 0 5.3331 2.73733 5.3331 6.09067C5.3331 8.12933 6.30377 9.94 7.79577 11.0453C7.02658 11.6212 6.40311 12.3694 5.97543 13.2299C5.54774 14.0904 5.32775 15.0391 5.3331 16C5.3331 18.04 6.30377 19.8493 7.79577 20.9547C7.02658 21.5306 6.40311 22.2788 5.97543 23.1392C5.54774 23.9997 5.32775 24.9485 5.3331 25.9093C5.3331 29.2627 7.9571 32 11.2198 32C14.4824 32 17.1064 29.2627 17.1064 25.9093V20.76C18.1371 21.6204 19.4371 22.0918 20.7798 22.092C24.0424 22.0907 26.6664 19.3533 26.6664 16C26.6718 15.0391 26.4518 14.0904 26.0241 13.2299C25.5964 12.3694 24.973 11.6212 24.2038 11.0453C24.973 10.4694 25.5964 9.72123 26.0241 8.86076C26.4518 8.0003 26.6718 7.05154 26.6664 6.09067C26.6664 2.73733 24.0424 0 20.7798 0H11.2198ZM7.5451 6.09067C7.5451 3.96933 9.2011 2.27067 11.2198 2.27067H14.8931V9.91067H11.2198C9.2011 9.91067 7.5451 8.21067 7.5451 6.09067ZM20.7798 9.90933H17.1064V2.26933H20.7798C22.7998 2.26933 24.4544 3.96933 24.4544 6.09067C24.4544 8.21067 22.7998 9.90933 20.7798 9.90933ZM7.54644 16C7.54644 13.88 9.20244 12.18 11.2211 12.18H14.8944V19.82H11.2198C9.19977 19.82 7.54644 18.12 7.54644 16ZM17.1051 16C17.1051 13.88 18.7611 12.18 20.7798 12.18C22.7998 12.18 24.4544 13.8787 24.4544 16C24.4544 18.12 22.7998 19.82 20.7798 19.82C18.7598 19.82 17.1051 18.12 17.1051 16ZM7.54644 25.9093C7.54644 23.7893 9.20244 22.0907 11.2211 22.0907H14.8944V25.9093C14.8944 28.0307 13.2411 29.7293 11.2211 29.7293C9.2011 29.7293 7.54644 28.0307 7.54644 25.9093Z" fill="#0B0B0F"/>
</g>
</svg>
