<svg width="24" height="26" viewBox="0 0 24 26" fill="none" xmlns="http://www.w3.org/2000/svg">
<path d="M4.13867 4.38658C4.91733 5.01858 5.208 4.97058 6.66933 4.87325L20.4453 4.04658C20.7387 4.04658 20.4947 3.75325 20.3973 3.70525L18.1093 2.05192C17.6707 1.71192 17.0867 1.32125 15.968 1.41858L2.628 2.39192C2.14267 2.43992 2.04533 2.68392 2.23867 2.87858L4.13867 4.38658ZM4.96533 7.59725V22.0906C4.96533 22.8706 5.35467 23.1612 6.232 23.1132L21.3707 22.2372C22.2467 22.1892 22.344 21.6533 22.344 21.0199V6.62392C22.344 5.99192 22.1013 5.65058 21.5653 5.69992L5.744 6.62392C5.16 6.67192 4.96533 6.96392 4.96533 7.59725ZM19.912 8.37458C20.008 8.81192 19.912 9.25058 19.472 9.29992L18.7427 9.44525V20.1453C18.1093 20.4866 17.5253 20.6799 17.0387 20.6799C16.26 20.6799 16.0653 20.4372 15.4813 19.7079L10.7093 12.2172V19.4652L12.22 19.8053C12.22 19.8053 12.22 20.6799 11.0013 20.6799L7.64267 20.8746C7.54533 20.6799 7.64267 20.1946 7.984 20.0973L8.86 19.8546V10.2719L7.64267 10.1746C7.54533 9.73592 7.78933 9.10392 8.47067 9.05458L12.0733 8.81192L17.0387 16.4012V9.68792L15.772 9.54258C15.676 9.00658 16.0653 8.61858 16.552 8.56925L19.912 8.37458ZM1.508 1.07858L15.3827 0.0572494C17.0853 -0.0894173 17.524 0.00924929 18.596 0.786583L23.024 3.89992C23.7547 4.43458 23.9987 4.57992 23.9987 5.16392V22.2372C23.9987 23.3079 23.6093 23.9399 22.2467 24.0372L6.13333 25.0106C5.11067 25.0586 4.624 24.9132 4.088 24.2319L0.826667 19.9999C0.242667 19.2213 0 18.6386 0 17.9559V2.77992C0 1.90525 0.388 1.17592 1.508 1.07858Z" fill="#0B0B0F"/>
</svg>
