<svg width="30" height="27" viewBox="0 0 30 27" fill="none" xmlns="http://www.w3.org/2000/svg">
<path d="M7.14234 9.33423C3.62634 10.2409 1.33301 11.7942 1.33301 13.5676C1.33301 16.3769 7.20634 18.6676 14.4663 18.6676C15.453 18.6676 16.1463 18.6156 17.0663 18.5382" stroke="#0B0B0F" stroke-width="2.66667" stroke-linecap="round" stroke-linejoin="round"/>
<path d="M11.7828 18.5343C11.2322 17.7396 10.7082 17.0236 10.2095 16.1343C6.54148 9.60095 5.55882 3.10761 8.03615 1.63695C9.56948 0.707614 12.0988 1.97428 14.6682 4.64228" stroke="#0B0B0F" stroke-width="2.66667" stroke-linecap="round" stroke-linejoin="round"/>
<path d="M7.23863 17.8502C6.30263 21.4342 6.49196 24.1382 7.9853 25.0436C10.3626 26.4836 15.168 22.4329 18.7093 15.9716C19.1893 15.0782 19.6195 14.1991 20 13.3342" stroke="#0B0B0F" stroke-width="2.66667" stroke-linecap="round" stroke-linejoin="round"/>
<path d="M14.666 22.0276C17.2367 24.6943 19.7553 25.9609 21.3034 25.0316C23.77 23.5623 22.798 17.0689 19.126 10.5343C18.614 9.63161 18.09 8.92894 17.5527 8.13428" stroke="#0B0B0F" stroke-width="2.66667" stroke-linecap="round" stroke-linejoin="round"/>
<path d="M22.2133 17.3343C25.6959 16.4183 27.9999 14.8676 27.9999 13.0996C27.9999 10.2863 22.1226 8.00098 14.8733 8.00098C13.8773 8.00098 13.1853 8.03964 12.2666 8.11698" stroke="#0B0B0F" stroke-width="2.66667" stroke-linecap="round" stroke-linejoin="round"/>
<path d="M9.33301 13.3344C9.71301 12.4544 10.1423 11.5904 10.6237 10.6971C14.153 4.2384 18.961 0.177062 21.3517 1.62906C22.8317 2.5344 23.0343 5.23706 22.0983 8.81973M15.013 13.3544H14.9997C14.9863 13.5277 14.8397 13.6744 14.653 13.6744C14.5637 13.67 14.4795 13.6316 14.4176 13.5672C14.3556 13.5028 14.3206 13.4171 14.3197 13.3277C14.3197 13.1411 14.4663 12.9944 14.6397 12.9944H14.6263C14.7997 12.9811 14.9597 13.1411 14.9597 13.3144" stroke="#0B0B0F" stroke-width="2.66667" stroke-linecap="round" stroke-linejoin="round"/>
</svg>
