<svg width="32" height="32" viewBox="0 0 32 32" fill="none" xmlns="http://www.w3.org/2000/svg">
<path d="M10.666 16.0001C10.666 8.63608 13.0527 2.66675 15.9993 2.66675C18.946 2.66675 21.3327 8.63608 21.3327 16.0001C21.3327 23.3641 18.946 29.3334 15.9993 29.3334C13.0527 29.3334 10.666 23.3641 10.666 16.0001Z" stroke="#0B0B0F" stroke-width="2"/>
<path d="M13.2996 11.4934C19.7556 7.81071 26.1983 6.89338 27.689 9.44404C29.1796 11.9947 25.1556 17.048 18.6996 20.7294C12.2436 24.4107 5.80095 25.3294 4.31028 22.7774C2.81962 20.2267 6.84362 15.176 13.2996 11.4934Z" stroke="#0B0B0F" stroke-width="2"/>
<path d="M18.6996 11.4934C25.1556 15.1734 29.1796 20.2267 27.689 22.7774C26.1983 25.3294 19.7556 24.412 13.2996 20.7294C6.84362 17.0467 2.81962 11.996 4.31028 9.44404C5.79962 6.89338 12.2436 7.81071 18.6996 11.4934Z" stroke="#0B0B0F" stroke-width="2"/>
<path d="M18 16C18 16.5304 17.7893 17.0391 17.4142 17.4142C17.0391 17.7893 16.5304 18 16 18C15.4696 18 14.9609 17.7893 14.5858 17.4142C14.2107 17.0391 14 16.5304 14 16C14 15.4696 14.2107 14.9609 14.5858 14.5858C14.9609 14.2107 15.4696 14 16 14C16.5304 14 17.0391 14.2107 17.4142 14.5858C17.7893 14.9609 18 15.4696 18 16Z" stroke="#0B0B0F" stroke-width="2"/>
</svg>
