<svg width="27" height="17" viewBox="0 0 27 17" fill="none" xmlns="http://www.w3.org/2000/svg">
<path fill-rule="evenodd" clip-rule="evenodd" d="M6.66667 5.41733C7.55556 1.80578 9.77778 0 13.3333 0C18.6667 0 19.3333 4.06267 22 4.74C23.7778 5.19156 25.3333 4.51422 26.6667 2.708C25.7778 6.31956 23.5556 8.12533 20 8.12533C14.6667 8.12533 14 4.06267 11.3333 3.38533C9.55556 2.93467 8 3.61244 6.66667 5.41867M0 13.544C0.888889 9.93156 3.11111 8.12533 6.66667 8.12533C12 8.12533 12.6667 12.188 15.3333 12.8653C17.1111 13.316 18.6667 12.6387 20 10.8333C19.1111 14.4449 16.8889 16.2507 13.3333 16.2507C8 16.2507 7.33333 12.188 4.66667 11.5107C2.88889 11.0591 1.33333 11.7378 0 13.544Z" fill="#0B0B0F"/>
</svg>
