<svg width="32" height="32" viewBox="0 0 32 32" fill="none" xmlns="http://www.w3.org/2000/svg">
<path d="M11.3668 6.17321L4.52416 4.95321C4.23291 4.89914 3.93229 4.92911 3.65745 5.03961C3.38261 5.15011 3.14491 5.33658 2.97216 5.57721C2.7906 5.82103 2.68492 6.11295 2.66832 6.41648C2.65172 6.72002 2.72494 7.02172 2.87882 7.28388L14.7468 28.0572C14.8852 28.2993 15.0853 28.5004 15.3268 28.6399C15.5683 28.7794 15.8424 28.8523 16.1213 28.8512C16.4001 28.8501 16.6737 28.7751 16.9141 28.6337C17.1545 28.4923 17.353 28.2897 17.4895 28.0465L29.1282 7.27588C29.7815 6.10921 28.7788 4.71988 27.4722 4.95721L21.3735 6.04121L21.0988 7.04655L27.6402 5.88521C27.7579 5.86406 27.8792 5.87677 27.99 5.92184C28.1008 5.96692 28.1966 6.04251 28.2661 6.13985C28.3357 6.23718 28.3762 6.35225 28.3829 6.47169C28.3896 6.59112 28.3623 6.71001 28.3042 6.81455L16.6668 27.5852C16.6028 27.7009 16.5039 27.7934 16.3841 27.8494C16.2644 27.9054 16.13 27.9222 16.0002 27.8972C15.9095 27.881 15.8236 27.8449 15.7485 27.7917C15.6733 27.7385 15.6109 27.6693 15.5655 27.5892L3.69616 6.81588C3.63708 6.71147 3.60895 6.5924 3.61504 6.47258C3.62113 6.35277 3.6612 6.23717 3.73056 6.13929C3.79991 6.0414 3.8957 5.96528 4.00672 5.91982C4.11773 5.87435 4.2394 5.86143 4.35749 5.88255L11.2015 7.10388L11.3002 7.12121L11.3668 6.17321Z" fill="#0B0B0F"/>
<path d="M20.1296 7.01332L20.3456 6.22266L19.5456 6.36532L20.1296 7.01332ZM12.2896 6.33866L12.9736 6.45866L12.251 7.02799L12.2896 6.33866Z" fill="#0B0B0F"/>
<path d="M20.7318 3.15601L12.5985 4.83601C12.5323 4.84985 12.473 4.88612 12.4305 4.93867C12.3869 4.99262 12.3613 5.0588 12.3571 5.12801L11.8571 14.0413C11.854 14.0896 11.8618 14.138 11.8801 14.1828C11.8983 14.2276 11.9265 14.2677 11.9625 14.3C11.9967 14.332 12.0385 14.3549 12.0839 14.3665C12.1294 14.3782 12.177 14.3782 12.2225 14.3667L14.4865 13.8147C14.6998 13.764 14.8891 13.9613 14.8465 14.1853L14.1731 17.66C14.1278 17.8947 14.3358 18.0947 14.5531 18.0253L15.9518 17.5773C16.1678 17.508 16.3771 17.708 16.3305 17.9427L15.2625 23.4C15.1958 23.7427 15.6251 23.928 15.8051 23.636L15.9251 23.44L22.5518 9.48801C22.6638 9.25467 22.4718 8.98801 22.2291 9.03734L19.8985 9.51201C19.6785 9.55734 19.4931 9.34134 19.5545 9.11601L21.0745 3.55201C21.1371 3.32534 20.9505 3.11067 20.7318 3.15601Z" fill="#0B0B0F"/>
</svg>
