<svg width="32" height="32" viewBox="0 0 32 32" fill="none" xmlns="http://www.w3.org/2000/svg">
<path d="M24.066 0.275612C23.7078 0.286027 23.3538 0.357031 23.0193 0.485612C22.8633 0.545612 22.6401 0.665445 22.3498 0.845112C22.1333 0.978941 21.9145 1.10896 21.6935 1.23511C21.4244 1.47865 21.1541 1.72082 20.8825 1.96161C20.6214 2.22599 20.3916 2.5195 20.1975 2.83636C20.1927 2.84437 20.1897 2.85382 20.1888 2.86407C20.1879 2.87433 20.1891 2.88516 20.1923 2.89586C20.2033 2.93286 20.1936 2.95511 20.1633 2.96261C20.1365 2.96944 20.1157 2.97878 20.1053 2.98861C19.9746 3.11873 19.8832 3.28299 19.8415 3.46261C19.8242 3.53261 19.7957 3.60295 19.756 3.67361C19.7177 3.73708 19.6894 3.80605 19.672 3.87811C19.6545 3.96711 19.6373 4.05603 19.6203 4.14486C19.6124 4.17425 19.5982 4.20155 19.5786 4.22484C19.5591 4.24813 19.5346 4.26683 19.507 4.27961C17.9292 3.82866 16.2889 3.63576 14.6495 3.70836C14.5773 3.71119 14.5057 3.72184 14.4358 3.74011C14.3658 3.75878 14.2961 3.77928 14.2268 3.80161C12.4949 3.88976 10.7932 4.29054 9.20402 4.98461C9.08765 4.93476 8.99049 4.84865 8.92702 4.73911L8.83102 4.57586C8.57126 4.20604 8.27245 3.86525 7.93977 3.55936C7.82794 3.4187 7.64269 3.26953 7.38402 3.11186C6.77735 2.74186 6.15535 2.54711 5.51802 2.52761L5.37152 2.53436C5.30557 2.53728 5.2396 2.52883 5.17652 2.50936C4.99661 2.50304 4.81912 2.55237 4.66827 2.65061L4.46477 2.78211C3.93377 3.08878 3.5146 3.50086 3.20727 4.01836C2.85777 4.60836 2.60444 5.25236 2.44727 5.95036C2.35027 6.37903 2.31244 6.8542 2.33377 7.37586C2.3526 7.42253 2.36635 7.47053 2.37502 7.51986C2.38202 7.55853 2.3776 7.6067 2.36177 7.66436C2.34028 7.74342 2.3291 7.82493 2.32852 7.90686C2.32752 7.96686 2.34627 8.04403 2.38477 8.13836C2.4631 8.3317 2.49077 8.53453 2.46777 8.74686C2.59477 9.30353 2.69502 9.71611 2.76852 9.98461C2.78819 10.0566 2.7891 10.1179 2.77127 10.1686L2.69902 10.3191C2.5214 10.4827 2.36817 10.671 2.24402 10.8781C2.09769 11.1221 2.02052 11.2505 2.01252 11.2634C1.92352 11.4089 1.84519 11.5609 1.77752 11.7194C0.931266 13.1409 0.382352 14.7195 0.164019 16.3594C0.0933303 16.5505 0.0633564 16.7542 0.076019 16.9576C0.014513 17.379 -0.0097475 17.805 0.00351905 18.2306L0.0282691 18.9964C0.0334357 19.4602 0.0493524 19.7784 0.076019 19.9509C0.199067 20.7449 0.390615 21.5268 0.648519 22.2879L0.728519 22.4254C0.965705 23.1501 1.26342 23.8536 1.61852 24.5284C1.80002 24.8727 1.93935 25.1069 2.03652 25.2309C2.27367 25.6197 2.53371 25.9941 2.81527 26.3521L3.00627 26.6086C3.11894 26.7591 3.24719 26.8963 3.39102 27.0201C3.54219 27.2038 3.69277 27.3877 3.84277 27.5719C4.09722 27.7848 4.34581 28.0046 4.58827 28.2311C4.8306 28.4571 5.04977 28.6359 5.24577 28.7676C5.65347 29.0407 6.07549 29.2917 6.51002 29.5196C6.82382 29.744 7.1443 29.959 7.47102 30.1641C7.67402 30.3113 7.91119 30.4366 8.18252 30.5401C8.73785 30.7526 9.25185 30.924 9.72452 31.0544C9.89952 31.1024 10.1345 31.1977 10.4295 31.3404C10.4493 31.3502 10.4716 31.3542 10.494 31.3521C10.6331 31.3385 10.7732 31.3395 10.912 31.3551C11.1305 31.4104 11.3493 31.4649 11.5683 31.5186C11.7504 31.5628 12.4625 31.6263 13.7045 31.7091C14.0498 31.7322 14.3963 31.7314 14.7415 31.7066C15.4219 31.742 16.104 31.7239 16.7815 31.6524C16.989 31.6305 17.2429 31.5849 17.5433 31.5156C17.7957 31.4582 18.049 31.4047 18.303 31.3551C18.5762 31.2543 18.8554 31.1706 19.139 31.1046C19.5724 30.9195 20.0086 30.741 20.4475 30.5694C20.5702 30.521 20.7133 30.4477 20.8768 30.3494C21.0351 30.2535 21.1819 30.1833 21.317 30.1386C21.6377 30.0334 21.9127 29.8939 22.142 29.7199C22.21 29.6682 22.2909 29.6276 22.3845 29.5981C22.5308 29.5521 22.6676 29.4801 22.7883 29.3856C23.0937 29.227 23.3874 29.0469 23.6673 28.8466C23.9459 28.6461 24.2181 28.4368 24.4835 28.2191C24.9552 27.8359 25.3912 27.4107 25.7863 26.9489C25.9047 26.81 26.0425 26.6889 26.1955 26.5894C26.3913 26.3644 26.5743 26.1287 26.7438 25.8834C27.5738 24.8612 28.2497 23.7232 28.7503 22.5054C28.8006 22.4154 28.8476 22.3239 28.8913 22.2311C28.9198 22.1708 28.9468 22.0731 28.9723 21.9381C28.9879 21.8523 29.0147 21.7689 29.052 21.6901C29.081 21.6284 29.1031 21.5569 29.1183 21.4756C29.1324 21.4001 29.1588 21.3273 29.1965 21.2604C29.2399 21.1845 29.2664 21.1203 29.276 21.0676C29.289 20.9973 29.3013 20.9271 29.3128 20.8571C29.3162 20.8383 29.3115 20.8169 29.2995 20.7971C29.2575 20.7271 29.275 20.6722 29.352 20.6324C29.4172 20.5411 29.4492 20.4303 29.4425 20.3184C29.4413 20.2961 29.4461 20.2746 29.4563 20.2564C29.5325 20.1164 29.5729 19.9597 29.5738 19.8004C29.6544 19.3499 29.7121 18.8969 29.7468 18.4416C29.7473 18.4399 29.7609 18.3433 29.7878 18.1516C29.8028 18.0441 29.8026 17.9318 29.7873 17.8146C29.7533 17.5526 29.7491 17.2876 29.7748 17.0246C29.7413 16.8926 29.7387 16.7547 29.7673 16.6216C29.7715 16.6012 29.7692 16.5794 29.7605 16.5591C29.7455 16.5226 29.7353 16.4849 29.7298 16.4459C29.7253 16.4159 29.7316 16.3679 29.7488 16.3019C29.7643 16.243 29.7631 16.1928 29.7453 16.1511C29.7018 16.0456 29.6776 15.9332 29.674 15.8191C29.6735 15.8037 29.6789 15.7887 29.6892 15.7772C29.6994 15.7658 29.7137 15.7586 29.729 15.7574C30.0034 15.737 30.2675 15.644 30.494 15.4879C30.6553 15.3777 30.8103 15.2586 30.9583 15.1311C31.1362 15.0409 31.2755 14.8893 31.3503 14.7044C31.4133 14.6194 31.4729 14.5327 31.529 14.4444C31.5397 14.4276 31.5436 14.4056 31.5398 14.3829C31.5291 14.3194 31.5474 14.2766 31.5948 14.2546C31.6181 14.2442 31.6358 14.2305 31.6448 14.2159C31.8812 13.8369 31.9952 13.3944 31.9713 12.9484C31.9711 12.9268 31.9757 12.9055 31.9845 12.8859C32.0022 12.8484 32.0045 12.8055 31.9908 12.7664L31.96 12.6754C31.9031 12.4088 31.8013 12.1539 31.6588 11.9216C31.6428 11.8946 31.6204 11.8719 31.5935 11.8556C31.4994 11.7984 31.4449 11.7441 31.4303 11.6926C31.4194 11.6554 31.3946 11.6238 31.361 11.6046C31.1598 11.4895 30.969 11.3572 30.7908 11.2091C30.7268 11.1558 30.5664 11.0989 30.3098 11.0384C30.1938 11.0404 30.078 11.0359 29.9625 11.0251C29.793 11.0096 29.6784 11.0039 29.6188 11.0081C29.3723 11.0248 29.1328 11.0965 28.9178 11.2181C28.7184 11.279 28.5221 11.3498 28.3298 11.4304C28.3214 11.4339 28.312 11.4341 28.3034 11.4311C28.2947 11.428 28.2875 11.4219 28.283 11.4139C27.6042 10.1503 26.7456 8.99202 25.734 7.97511C25.6764 7.91745 25.6634 7.84953 25.695 7.77136L26.1125 6.74261C26.4055 5.97661 26.5951 5.16203 26.6813 4.29886C26.7651 3.4582 26.6634 2.65678 26.3763 1.89461C26.3539 1.84565 26.3272 1.7988 26.2965 1.75461C26.0009 1.17895 25.5748 0.745445 25.0183 0.454112H25.0178C24.835 0.358453 24.6347 0.300875 24.429 0.284862C24.3083 0.274933 24.1871 0.271761 24.066 0.275362V0.275612ZM23.9598 0.736112C24.0782 0.740981 24.196 0.756375 24.3118 0.782112C24.3883 0.799737 24.4638 0.821858 24.5378 0.848362C24.352 0.781527 24.1571 0.743667 23.9598 0.736112ZM25.5633 1.57361C25.5677 1.59079 25.5703 1.60839 25.571 1.62611C25.5709 1.63982 25.5679 1.65335 25.5623 1.66586C25.5651 1.66023 25.5672 1.65402 25.5685 1.64786C25.5716 1.63253 25.5718 1.61676 25.569 1.60136C25.5676 1.59201 25.5657 1.58275 25.5633 1.57361ZM23.4453 1.92136C23.3776 1.92207 23.3101 1.92582 23.2428 1.93261C23.3093 1.92561 23.3765 1.92178 23.445 1.92111L23.4453 1.92136ZM23.6545 1.92861C23.7965 1.93943 23.9371 1.96371 24.0745 2.00111C24.3368 2.07252 24.5807 2.19937 24.7898 2.37311V2.37336C24.5807 2.19962 24.3368 2.07277 24.0745 2.00136C23.9371 1.96388 23.7965 1.93952 23.6545 1.92861ZM22.1515 2.39186C21.979 2.53203 21.8077 2.67395 21.6375 2.81761C21.4225 2.99782 21.2302 3.20359 21.065 3.43036C20.9007 3.65818 20.7644 3.90496 20.659 4.16536L20.389 4.84736L20.6585 4.16536C20.7664 3.90036 20.9017 3.65536 21.065 3.43036C21.23 3.20346 21.4222 2.99752 21.637 2.81711C21.8074 2.67378 21.9789 2.53186 22.1515 2.39186ZM23.5628 2.27911C23.8833 2.27261 24.1769 2.36361 24.4435 2.55211C24.5369 2.61761 24.611 2.70936 24.666 2.82736C24.8187 3.15005 24.9391 3.48702 25.0255 3.83336L25.0855 4.31611C25.0873 4.33207 25.0979 4.3526 25.115 4.37361C25.1654 4.43611 25.167 4.50328 25.12 4.57511C25.0404 4.69511 25.0165 4.8372 25.0485 5.00136C25.0542 5.03112 25.0534 5.06174 25.0462 5.09109C25.0389 5.12044 25.0254 5.14783 25.0065 5.17136C24.9832 5.19814 24.9682 5.23103 24.9631 5.26614C24.958 5.30125 24.9631 5.33708 24.9778 5.36936C24.9094 5.43003 24.8871 5.50253 24.9108 5.58686L24.861 5.82061L24.7943 5.98811C24.7926 6.00666 24.7849 6.02414 24.7723 6.03786L24.7733 6.04086L24.7718 6.03786C24.7596 6.07076 24.7553 6.10605 24.7592 6.1409C24.7631 6.17576 24.7751 6.20922 24.7943 6.23861C24.6743 6.32861 24.6018 6.44561 24.5768 6.58961H24.5763C24.5553 6.66122 24.5496 6.7364 24.5593 6.81036C24.5693 6.8987 24.5403 6.91461 24.4723 6.85811C23.3573 5.93478 22.1374 5.22161 20.8128 4.71861C20.8078 4.71659 20.8034 4.71367 20.8001 4.71016C20.7969 4.70664 20.7949 4.70265 20.7943 4.69861L20.7923 4.68386L21.1268 4.16536C21.5923 3.41803 22.2096 2.84528 22.9788 2.44711C23.1874 2.33911 23.3821 2.28311 23.5628 2.27911ZM25.0525 3.01111H25.055V3.01161L25.0525 3.01111ZM5.78552 3.20636C5.79586 3.20538 5.80576 3.20623 5.81477 3.20886C5.79649 3.20396 5.77505 3.20635 5.75427 3.21561C5.76457 3.21083 5.77515 3.2077 5.78552 3.20636ZM25.3358 3.26486C25.3566 3.27703 25.3691 3.2912 25.3733 3.30736C25.3773 3.32386 25.3729 3.34228 25.36 3.36261C25.3725 3.34211 25.3769 3.32353 25.3733 3.30736C25.3691 3.29103 25.3566 3.27711 25.3358 3.26511V3.26486ZM6.21077 3.27661L6.22977 3.27861L6.24302 3.28311C6.23869 3.28161 6.23427 3.28028 6.22977 3.27911L6.21077 3.27661ZM6.87352 3.37836L6.88227 3.38161L6.88502 3.38211H6.88227L6.87352 3.37836ZM26.4543 3.65911L26.4508 3.67161C26.4516 3.66728 26.4528 3.66311 26.4543 3.65911ZM26.4485 3.77661L26.45 3.78411C26.4735 3.88111 26.4935 3.97903 26.51 4.07786H26.5095C26.4932 3.97923 26.4732 3.88124 26.4495 3.78411L26.4485 3.77661ZM19.973 3.81436C19.9787 3.82632 19.9863 3.83729 19.9955 3.84686C20.0209 3.87303 20.0544 3.87811 20.096 3.86211C20.0545 3.87811 20.0209 3.87311 19.9953 3.84711C19.9861 3.83746 19.9787 3.82641 19.973 3.81436ZM20.156 3.85536C20.1567 3.85535 20.1574 3.85535 20.158 3.85536C20.1655 3.85711 20.1725 3.86011 20.18 3.86211L20.158 3.85586C20.1574 3.85569 20.1567 3.85552 20.156 3.85536ZM16.0613 3.94361C16.0412 3.94324 16.0212 3.94408 16.0013 3.94611C16.0206 3.94361 16.0406 3.94278 16.0613 3.94361ZM26.2463 4.12911C26.2661 4.13978 26.2778 4.15286 26.2813 4.16836C26.2853 4.18336 26.2813 4.20078 26.2693 4.22061C26.2813 4.20095 26.2854 4.18345 26.2815 4.16811C26.2777 4.15311 26.2658 4.14011 26.2463 4.12911ZM12.0493 4.29911C11.9696 4.31295 11.6693 4.40036 11.1483 4.56136C11.6696 4.40036 11.9699 4.31295 12.049 4.29911H12.0493ZM26.405 4.30111C26.4096 4.29994 26.4145 4.30011 26.419 4.30161C26.4004 4.29695 26.3768 4.31011 26.3483 4.34111C26.3699 4.31745 26.3889 4.30411 26.405 4.30111ZM26.4615 4.37186C26.4735 4.4287 26.4783 4.48453 26.4758 4.53936C26.4733 4.5942 26.4637 4.64795 26.447 4.70061C26.4496 4.89933 26.4215 5.09726 26.3635 5.28736C26.3519 5.3257 26.3157 5.39378 26.255 5.49161C26.3157 5.39411 26.3519 5.32603 26.3635 5.28736C26.4214 5.09786 26.4492 4.90228 26.447 4.70061C26.4808 4.59423 26.4858 4.48081 26.4615 4.37186ZM19.5393 4.33686C19.5441 4.37078 19.5378 4.40536 19.5213 4.43536C19.5293 4.42004 19.535 4.40361 19.5383 4.38661C19.5414 4.37012 19.5417 4.35347 19.5393 4.33686ZM15.243 4.37336L15.2513 4.37386L15.2343 4.37436L15.243 4.37336ZM14.5745 4.37861L14.5828 4.37911L14.5663 4.37961L14.5745 4.37861ZM15.5028 4.38461L15.5105 4.38511H15.511V4.38561L15.5028 4.38461ZM14.9848 4.39536L14.9758 4.39686L14.9708 4.39636H14.9753L14.9848 4.39536ZM13.8048 4.39911C13.7913 4.42375 13.7741 4.44618 13.7538 4.46561C13.7714 4.45011 13.7883 4.42795 13.8048 4.39911ZM16.2338 4.41186H16.2498L16.2338 4.41236V4.41186ZM14.511 4.45761C14.373 4.47469 14.2356 4.49637 14.099 4.52261C14.1739 4.51097 14.2486 4.49797 14.323 4.48361C14.3855 4.47411 14.4482 4.46528 14.511 4.45761ZM19.4885 4.48261C19.5792 4.51928 19.669 4.55845 19.758 4.60011C19.8139 4.60978 19.8669 4.6227 19.9173 4.63886C19.8651 4.62239 19.8119 4.60961 19.758 4.60011C19.6692 4.55863 19.5794 4.51929 19.4885 4.48261ZM12.4233 4.50261C12.4237 4.50261 12.4241 4.50261 12.4245 4.50261C12.4241 4.50277 12.4237 4.50294 12.4233 4.50311V4.50261ZM12.4758 4.50261C12.4763 4.5026 12.4768 4.5026 12.4773 4.50261C12.5164 4.52878 12.5589 4.54578 12.6048 4.55361L12.618 4.55211L12.6055 4.55386C12.5596 4.54632 12.5159 4.52901 12.4773 4.50311C12.4769 4.50294 12.4762 4.50277 12.4758 4.50261ZM16.0065 4.54286C16.0065 4.54536 16.0053 4.54786 16.0028 4.55036C16.0053 4.54753 16.0065 4.5452 16.0065 4.54286ZM11.7818 5.11836C11.3313 5.17603 10.9616 5.24686 10.6728 5.33086C10.5839 5.35639 10.4964 5.386 10.4103 5.41961C10.4083 5.42061 10.4073 5.42036 10.4053 5.42111L10.4103 5.41961C10.4964 5.386 10.5839 5.35639 10.6728 5.33086C10.9618 5.2467 11.3316 5.17586 11.7818 5.11836ZM12.5785 4.73036C12.5726 4.73042 12.5668 4.73152 12.5613 4.73361C12.5667 4.73118 12.5726 4.73007 12.5785 4.73036ZM26.003 5.05261C25.9977 5.10761 25.9968 5.17445 26.0003 5.25311L25.9998 5.26261V5.25361C25.9964 5.18661 25.9974 5.11946 26.003 5.05261ZM5.79327 5.26161C5.80358 5.26181 5.81426 5.26429 5.82452 5.26886C5.87002 5.28936 5.92719 5.29486 5.99602 5.28536C6.03252 5.2807 6.07485 5.2882 6.12302 5.30786C6.16115 5.32475 6.20107 5.33725 6.24202 5.34511C6.73669 5.42761 7.11585 5.68228 7.37952 6.10911C7.40785 6.15478 7.4641 6.19795 7.54827 6.23861L8.28952 7.07486L8.78952 7.81086C8.79539 7.81953 8.79875 7.82966 8.79924 7.84015C8.79972 7.85065 8.79731 7.8611 8.79227 7.87036C8.72987 7.98913 8.63615 8.08856 8.52127 8.15786C8.51674 8.16048 8.5118 8.1623 8.50676 8.16321C8.50173 8.16412 8.4967 8.16411 8.49201 8.16317C8.48732 8.16223 8.48305 8.16039 8.47948 8.15775C8.47591 8.15512 8.47312 8.15175 8.47127 8.14786L8.42327 8.04461C8.42244 7.97678 8.39444 7.93136 8.33927 7.90836C8.33017 7.90462 8.31994 7.90339 8.30952 7.90479C8.29909 7.90618 8.28878 7.91016 8.27952 7.91636C8.07702 8.0487 8.07935 8.1852 8.28652 8.32586V8.32636C8.30302 8.33853 8.30952 8.35611 8.30602 8.37911C8.28084 8.40198 8.26191 8.43089 8.25102 8.46311L8.25277 8.47086L8.25027 8.46336L7.94602 8.74586C7.93744 8.75386 7.92702 8.75963 7.9157 8.76267C7.90437 8.7657 7.89249 8.7659 7.88113 8.76325C7.86976 8.7606 7.85925 8.75518 7.85055 8.74748C7.84185 8.73978 7.83523 8.73003 7.83127 8.71911L7.72302 8.41536C7.71947 8.40557 7.71345 8.39713 7.70581 8.39124C7.69818 8.38536 7.68932 8.38234 7.68052 8.38261C7.54135 8.38594 7.50135 8.45903 7.56052 8.60186C7.61392 8.73155 7.64315 8.86991 7.64677 9.01011C7.64746 9.03172 7.64076 9.05303 7.62777 9.07061C7.49249 9.25905 7.3289 9.42543 7.14277 9.56386C7.13409 9.57033 7.12374 9.57384 7.11393 9.57365C7.10413 9.57347 7.09563 9.56959 7.09027 9.56286C7.0731 9.53986 7.0656 9.50219 7.06777 9.44986C7.0683 9.44045 7.0666 9.43104 7.06282 9.42241C7.05903 9.41377 7.05326 9.40615 7.04598 9.40016C7.0387 9.39417 7.03011 9.38998 7.02091 9.38793C7.01171 9.38588 7.00215 9.38603 6.99302 9.38836C6.75019 9.44903 6.73552 9.55761 6.94902 9.71411L6.87902 9.86736L6.39727 10.3216C6.34697 10.2636 6.31237 10.1936 6.29677 10.1184C6.27669 9.99896 6.22663 9.88662 6.15127 9.79186C6.14882 9.78869 6.14564 9.78617 6.14199 9.78451C6.13835 9.78286 6.13435 9.78212 6.13036 9.78237C6.12636 9.78261 6.12248 9.78384 6.11907 9.78593C6.11565 9.78802 6.11281 9.79091 6.11077 9.79436C6.08812 9.82836 6.07021 9.86528 6.05752 9.90411C6.04752 9.93511 6.03002 9.97153 6.00502 10.0134C5.96469 10.0815 5.98769 10.1262 6.07402 10.1474C6.08094 10.1491 6.08716 10.1532 6.09182 10.159C6.09648 10.1648 6.09935 10.1721 6.10002 10.1799L6.13227 10.5531C6.0906 10.7533 5.96802 10.8592 5.76452 10.8709C5.74877 10.7351 5.69573 10.6063 5.61127 10.4989C5.60501 10.4911 5.59635 10.4858 5.58676 10.4837C5.57718 10.4817 5.56728 10.4831 5.55877 10.4876C5.4801 10.5289 5.46844 10.5966 5.52377 10.6906C5.56194 10.8353 5.6031 10.979 5.64727 11.1219C5.52827 11.2417 5.38327 11.2974 5.21227 11.2889C5.08505 11.0521 4.97929 10.8045 4.89627 10.5489C4.83038 10.432 4.78999 10.3025 4.77777 10.1689L4.70527 10.0014C4.66323 10.0141 4.61883 10.0169 4.57552 10.0096C4.54149 10.0028 4.51141 9.98306 4.49152 9.95461C4.47419 9.92978 4.45302 9.87094 4.42802 9.77811C4.41535 9.72975 4.40674 9.68041 4.40227 9.63061C4.40694 9.68144 4.41552 9.73061 4.42802 9.77811C4.45302 9.87111 4.47419 9.93011 4.49152 9.95461C4.51141 9.98306 4.54149 10.0028 4.57552 10.0096C4.61102 10.0174 4.6541 10.0145 4.70527 10.0014H4.70602C4.69964 9.93172 4.68538 9.86304 4.66352 9.79661C4.63995 9.73225 4.62531 9.66495 4.62002 9.59661C4.60323 9.27493 4.55585 8.95557 4.47852 8.64286C4.46102 8.57203 4.44769 8.45078 4.43852 8.27911C4.43602 8.27986 4.43352 8.27936 4.43102 8.28011L4.43777 8.27861C4.45056 8.16549 4.43826 8.05094 4.40177 7.94311C4.3949 7.92198 4.39336 7.89948 4.39727 7.87761C4.42777 7.71761 4.44227 7.55586 4.44077 7.39236C4.46175 7.30049 4.44962 7.20416 4.40652 7.12036C4.40231 7.11196 4.40073 7.1024 4.40197 7.09285C4.40322 7.0833 4.40723 7.07419 4.41352 7.06661C4.43233 7.04636 4.44636 7.02214 4.45458 6.99575C4.4628 6.96936 4.465 6.94147 4.46102 6.91411C4.44818 6.83366 4.45743 6.75122 4.48777 6.67561C4.58499 6.42554 4.70438 6.18466 4.84452 5.95586C4.91997 5.83352 5.02031 5.72841 5.13902 5.64736C5.3394 5.50752 5.54849 5.3806 5.76502 5.26736C5.77335 5.26329 5.78301 5.26133 5.79327 5.26161ZM7.21027 5.27236C7.25327 5.33053 7.29769 5.38728 7.34352 5.44261C7.29769 5.38761 7.25327 5.33086 7.21027 5.27236ZM14.1943 5.28161C14.2823 5.27461 14.3639 5.30995 14.4393 5.38761C14.5807 5.53382 14.6967 5.70264 14.7825 5.88711C14.7902 5.90378 14.8035 5.92045 14.8225 5.93711C14.8704 5.98111 14.9047 6.0482 14.9255 6.13836C14.9537 6.2607 15.0044 6.37653 15.0775 6.48586C15.0825 6.49352 15.0855 6.50228 15.0862 6.51137C15.087 6.52046 15.0856 6.5296 15.082 6.53799C15.0784 6.54638 15.0728 6.55377 15.0657 6.5595C15.0586 6.56523 15.0502 6.56913 15.0413 6.57086C14.9238 6.59186 14.8354 6.5612 14.7763 6.47886C14.7363 6.42225 14.6957 6.36608 14.6545 6.31036C14.4012 6.04594 14.2006 5.73554 14.0638 5.39586C14.0602 5.38705 14.0585 5.37764 14.0586 5.36817C14.0587 5.3587 14.0607 5.34936 14.0644 5.34069C14.0681 5.33201 14.0735 5.32418 14.0803 5.31765C14.087 5.31111 14.095 5.306 14.1038 5.30261C14.1346 5.29095 14.1648 5.28395 14.1943 5.28161ZM9.72927 5.46111L9.72102 5.46561L9.71477 5.46761C9.71727 5.46686 9.71802 5.46586 9.72052 5.46511L9.72927 5.46111ZM9.60727 5.53311L9.60677 5.53436L9.60627 5.53386L9.60727 5.53311ZM9.13902 5.60286C9.15737 5.59925 9.1762 5.60083 9.19321 5.6074C9.21022 5.61398 9.22466 5.62526 9.23477 5.63986V5.64036C9.22466 5.62576 9.21022 5.61448 9.19321 5.6079C9.1762 5.60133 9.15737 5.59975 9.13902 5.60336L8.80502 5.67011C8.78124 5.676 8.75673 5.67836 8.73227 5.67711C8.74977 5.67845 8.77402 5.67595 8.80502 5.66961L9.13902 5.60286ZM21.609 5.62911C21.618 5.63311 21.629 5.63661 21.638 5.64036C21.9422 5.77063 22.2386 5.91855 22.5255 6.08336C22.6415 6.1502 22.9251 6.32045 23.3763 6.59411C23.0939 6.4218 22.8101 6.25172 22.525 6.08386C22.3817 6.00129 22.2359 5.92293 22.088 5.84886C21.9401 5.77517 21.79 5.70581 21.638 5.64086L21.609 5.62911ZM24.9408 5.81061C24.9518 5.82228 24.9614 5.83128 24.9695 5.83761C24.9777 5.84428 24.9844 5.8487 24.9895 5.85086C24.9822 5.84755 24.9754 5.84307 24.9695 5.83761C24.9596 5.82908 24.95 5.8199 24.9408 5.81061ZM9.77327 5.85861C9.79077 5.89561 9.80752 5.93261 9.82952 5.96711C9.88677 6.07861 9.94852 6.18761 10.0095 6.29711C9.94852 6.18761 9.88627 6.07886 9.82902 5.96711C9.80702 5.93261 9.79077 5.89536 9.77327 5.85861ZM7.56177 5.87611C7.58044 5.88995 7.59935 5.90303 7.61852 5.91536C7.78752 6.02153 7.9086 6.12503 7.98177 6.22586C7.90844 6.1252 7.78735 6.02186 7.61852 5.91586C7.59915 5.90335 7.58022 5.88993 7.56177 5.87611ZM9.59018 5.88173C9.59945 5.88387 9.60707 5.88885 9.61177 5.89586V5.89636C9.60721 5.88919 9.59946 5.88401 9.59018 5.88173ZM18.887 5.99961C18.9127 6.00551 18.9367 6.01714 18.9573 6.03361C19.0068 6.07128 19.0428 6.13961 19.0653 6.23861C19.2053 6.86561 19.2746 7.18345 19.2733 7.19211C19.2583 7.29911 19.2794 7.39578 19.3368 7.48211C19.343 7.49136 19.347 7.5016 19.3483 7.51182C19.3497 7.52204 19.3483 7.53188 19.3443 7.54036C19.3041 7.6287 19.2342 7.67103 19.1345 7.66736C19.1248 7.66694 19.1153 7.66344 19.1071 7.65727C19.099 7.65111 19.0925 7.64254 19.0885 7.63261C19.0183 7.46537 18.9734 7.2886 18.9553 7.10811C18.835 6.83389 18.7364 6.5507 18.6603 6.26111C18.655 6.24098 18.6539 6.22004 18.657 6.1996C18.6601 6.17916 18.6675 6.15968 18.6785 6.14236C18.7472 6.03403 18.8167 5.98653 18.887 5.99986V5.99961ZM23.115 6.05886C23.4309 6.22019 23.7258 6.41977 23.993 6.65311C23.7257 6.41997 23.4308 6.22041 23.115 6.05886ZM11.737 6.05936C11.7436 6.0586 11.7505 6.05941 11.7569 6.06171C11.7634 6.06402 11.7694 6.06775 11.7743 6.07261C11.9059 6.20028 12.0228 6.3412 12.1248 6.49536C12.1693 6.56286 12.2413 6.66203 12.3408 6.79286C12.4161 6.8907 12.4792 6.99711 12.53 7.11211C12.5955 7.26111 12.5509 7.29461 12.3963 7.21261C12.2822 7.15284 12.1756 7.07993 12.0785 6.99536C11.9697 6.90136 11.815 6.6867 11.6145 6.35136C11.6081 6.34074 11.604 6.32955 11.6026 6.31886C11.6012 6.30818 11.6024 6.29836 11.6063 6.29036L11.7068 6.08086C11.7095 6.07504 11.7136 6.07005 11.7189 6.06631C11.7242 6.06257 11.7304 6.06018 11.737 6.05936ZM24.7883 6.06711L24.7903 6.06961H24.7898L24.7883 6.06711ZM9.60227 6.15361C9.62111 6.16274 9.64143 6.16841 9.66227 6.17036C9.68078 6.17255 9.69821 6.18016 9.71233 6.19223C9.69826 6.18021 9.68096 6.17282 9.66252 6.17061C9.64166 6.16858 9.62109 6.16283 9.60227 6.15361ZM2.93402 6.18061C2.90927 6.27561 2.86452 6.56686 2.80252 7.03111C2.86485 6.56278 2.90869 6.27928 2.93402 6.18061ZM10.1178 6.50974C10.1185 6.51939 10.1168 6.52869 10.113 6.53686C10.0964 6.56853 10.0753 6.58603 10.0498 6.58936C10.0751 6.58603 10.096 6.56853 10.1125 6.53686C10.1164 6.52873 10.1184 6.51939 10.1178 6.50974ZM25.321 6.55986C25.3778 6.61229 25.441 6.65739 25.509 6.69411C25.478 6.67195 25.4455 6.65191 25.4118 6.63411C25.3801 6.61116 25.3498 6.58637 25.321 6.55986ZM8.31077 6.68536C8.33694 6.73586 8.36302 6.80061 8.38902 6.87961C8.39602 6.90029 8.40887 6.91852 8.42602 6.93211C8.5517 7.03168 8.63526 7.17494 8.66002 7.33336C8.63519 7.17491 8.55155 7.03163 8.42577 6.93211C8.40871 6.91848 8.39596 6.90026 8.38902 6.87961C8.368 6.81293 8.34184 6.74799 8.31077 6.68536ZM24.7853 6.67911C24.7797 6.6999 24.7709 6.71965 24.759 6.73761C24.751 6.74916 24.7446 6.76178 24.74 6.77511C24.7444 6.76181 24.7506 6.74919 24.7585 6.73761C24.7705 6.71968 24.7796 6.69993 24.7853 6.67911ZM16.6723 7.01936C16.6906 7.02022 16.7083 7.0261 16.7235 7.03636C16.7308 7.04119 16.7365 7.04894 16.7401 7.05871C16.7436 7.06847 16.7448 7.07988 16.7435 7.09161C16.731 7.19828 16.7536 7.28945 16.8113 7.36511C16.9008 7.48311 16.9469 7.54478 16.9495 7.55011C16.9915 7.64445 17.0262 7.76053 17.0535 7.89836C17.0615 7.9392 17.0786 7.97545 17.1048 8.00711C17.2014 8.12261 17.2553 8.25103 17.2663 8.39236C17.2713 8.45736 17.2453 8.47411 17.1883 8.44261C17.138 8.41568 17.0978 8.37324 17.0735 8.32161C17.0515 8.27325 17.0281 8.22548 17.0035 8.17836C16.9471 8.09152 16.8967 8.00089 16.8528 7.90711C16.6757 7.654 16.5648 7.36058 16.5303 7.05361C16.5297 7.04875 16.5301 7.04374 16.5315 7.03907C16.5329 7.03439 16.5352 7.0302 16.5382 7.02691C16.5413 7.02361 16.5449 7.02133 16.5487 7.02027C16.5526 7.01921 16.5566 7.01941 16.5603 7.02086L16.5803 7.02961C16.5872 7.03228 16.5941 7.03381 16.6004 7.03407C16.6067 7.03433 16.6122 7.03332 16.6165 7.03111C16.634 7.02296 16.653 7.01893 16.6723 7.01936ZM2.79877 7.05786V7.05836H2.79627L2.79877 7.05786ZM19.1673 7.34361C19.1559 7.34445 19.1324 7.3612 19.0965 7.39386C19.0888 7.40099 19.0836 7.41034 19.0815 7.42061C19.0779 7.44528 19.0892 7.45295 19.1155 7.44361C19.1241 7.44061 19.1323 7.43538 19.1396 7.42825C19.1469 7.42111 19.1532 7.41222 19.158 7.40211C19.177 7.36211 19.1801 7.34261 19.1673 7.34361ZM25.3855 7.69411C25.3876 7.69601 25.3901 7.69746 25.3928 7.69837C25.3955 7.69928 25.3983 7.69963 25.4011 7.69939C25.4039 7.69916 25.4066 7.69834 25.409 7.697C25.4115 7.69566 25.4136 7.69383 25.4153 7.69161L25.4178 7.68786L25.4158 7.69161C25.4156 7.69161 25.4154 7.69161 25.4153 7.69161C25.4136 7.69383 25.4115 7.69566 25.409 7.697C25.4066 7.69834 25.4039 7.69916 25.4011 7.69939C25.3983 7.69963 25.3955 7.69928 25.3928 7.69837C25.3901 7.69746 25.3876 7.69601 25.3855 7.69411ZM8.70352 7.54286C8.75019 7.5447 8.78877 7.55136 8.81927 7.56286C8.78198 7.55016 8.74291 7.54341 8.70352 7.54286ZM14.3188 7.62386C14.4304 7.6192 14.5273 7.69436 14.6093 7.84936C14.6399 7.90736 14.6827 7.95428 14.7375 7.99011C14.778 8.01678 14.7889 8.05761 14.77 8.11261C14.7593 8.14366 14.758 8.17713 14.7661 8.20883C14.7742 8.24053 14.7915 8.26906 14.8158 8.29086C15.0349 8.48669 15.1593 8.67661 15.1888 8.86061C15.2001 8.92945 15.1778 8.94311 15.1218 8.90161C14.8323 8.68703 14.5631 8.44626 14.3178 8.18236C14.3033 8.16718 14.2939 8.14707 14.2908 8.12486C14.2724 8.00503 14.2101 7.90861 14.1038 7.83561C14.0944 7.82912 14.0867 7.82051 14.0813 7.81047C14.0758 7.80044 14.0729 7.78927 14.0726 7.77787C14.0723 7.76647 14.0747 7.75517 14.0796 7.74487C14.0845 7.73457 14.0917 7.72558 14.1008 7.71861C14.1788 7.65828 14.2514 7.62661 14.3188 7.62361V7.62386ZM8.86652 7.88311L8.86752 7.88561C8.86735 7.88561 8.86719 7.88561 8.86702 7.88561C8.86652 7.88486 8.86702 7.88386 8.86652 7.88311ZM4.29227 8.48661H4.29277L4.29227 8.48761V8.48661ZM25.3263 8.74786C25.3476 8.74693 25.3686 8.75386 25.3855 8.76736C25.7105 9.02903 25.8672 9.35828 25.8555 9.75511C25.8494 9.95495 25.7977 10.1071 25.7005 10.2116C25.604 10.3151 25.4799 10.3584 25.328 10.3416C25.211 10.3288 25.1045 10.2724 25.0085 10.1726C24.6889 9.84094 24.661 9.4487 24.925 8.99586C25.0162 8.83986 25.1499 8.7572 25.3263 8.74786ZM19.4915 8.98811V8.99011L19.4215 9.21861L19.491 8.99011C19.491 8.98928 19.4912 8.98861 19.4915 8.98811ZM4.44152 9.03311C4.44263 9.03417 4.44371 9.03525 4.44477 9.03636C4.44363 9.03517 4.44247 9.034 4.44127 9.03286L4.44152 9.03311ZM26.2835 9.09636C26.392 9.22469 26.5012 9.36136 26.611 9.50636C26.814 9.77503 27.0201 10.0415 27.2293 10.3059C27.3311 10.4464 27.4172 10.572 27.4875 10.6829C27.4051 10.5548 27.3188 10.4292 27.2288 10.3064C27.0197 10.0422 26.8136 9.77581 26.6105 9.50711C26.5054 9.36713 26.3964 9.23016 26.2835 9.09636ZM4.32252 9.13836C4.34707 9.16243 4.3626 9.19421 4.36652 9.22836C4.36222 9.19432 4.34674 9.16266 4.32252 9.13836ZM20.845 9.28211C20.9645 9.28378 21.0841 9.29694 21.2038 9.32161C21.3238 9.34611 21.4439 9.3822 21.5643 9.42986L22.1663 9.60236C22.4096 9.6587 22.6437 9.74236 22.8685 9.85336C23.1164 9.95136 23.3488 10.075 23.5658 10.2244C23.7163 10.3284 23.9226 10.4899 24.1848 10.7089C24.7648 11.1943 25.2595 11.7733 25.6483 12.4221C25.657 12.4366 25.6741 12.4456 25.6959 12.447C25.7177 12.4485 25.7426 12.4423 25.7653 12.4299C25.8381 12.3899 25.9153 12.3624 25.9968 12.3474C26.0779 12.3329 26.1069 12.3508 26.0838 12.4011C26.0805 12.4078 26.0745 12.4148 26.066 12.4217C26.0576 12.4286 26.0469 12.4352 26.0348 12.4411L25.7893 12.5584C25.7813 12.5625 25.7752 12.5698 25.7722 12.5788C25.7691 12.5879 25.7693 12.5981 25.7728 12.6076C25.839 12.7832 25.9295 12.9485 26.0418 13.0989C26.3071 13.7144 26.5066 14.3563 26.6368 15.0139C26.6404 15.0315 26.6372 15.0533 26.6278 15.0759C26.5983 15.1455 26.6008 15.2593 26.6353 15.4171C26.6419 15.4478 26.6463 15.479 26.6483 15.5109C26.6533 15.6144 26.6664 15.7182 26.6878 15.8224C26.7041 15.904 26.7065 15.9814 26.695 16.0544C26.6759 16.1754 26.6656 16.2535 26.6643 16.2889C26.5873 18.3185 25.8139 19.9975 24.344 21.3259C23.3587 22.2169 22.1895 22.7637 20.8365 22.9664C20.8325 22.967 20.7844 22.9807 20.692 23.0074C20.6374 23.0229 20.5794 23.022 20.5253 23.0049C20.5046 22.9983 20.4827 22.9966 20.4613 23.0001C19.9946 23.0803 19.5708 23.0894 19.1898 23.0276C19.0153 22.9989 18.8773 22.9904 18.7758 23.0021C18.7542 23.0048 18.7323 23.0017 18.7123 22.9934C18.5 22.9009 18.277 22.8352 18.0485 22.7976C17.8638 22.7079 17.6752 22.6264 17.4833 22.5534C16.823 22.303 16.215 21.9321 15.6903 21.4596C14.6833 20.5546 13.9842 19.4171 13.593 18.0471C13.5867 18.0251 13.5826 18.0025 13.5808 17.9796C13.5639 17.7519 13.5296 17.5742 13.4778 17.4464C13.4386 17.3493 13.4146 17.2467 13.4065 17.1424L13.4215 16.9416C13.4342 16.7781 13.3414 16.6943 13.1433 16.6901C13.0633 16.6888 13.0602 16.6727 13.134 16.6419C13.2055 16.6119 13.2839 16.6252 13.369 16.6819C13.3954 16.6994 13.4072 16.6932 13.4045 16.6634L13.3563 16.1584C13.3558 16.1501 13.3524 16.1413 13.3463 16.1327C13.3402 16.1241 13.3316 16.116 13.3213 16.1091C13.2674 16.0729 13.2674 16.0366 13.3213 16.0001C13.3405 15.9868 13.3542 15.9698 13.3603 15.9519C13.3973 15.8335 13.4109 15.7119 13.4013 15.5869V15.4529L13.3983 15.4519L13.4013 15.4524C13.4548 15.1439 13.5387 14.8415 13.6518 14.5496C13.762 13.9211 13.9787 13.3161 14.2928 12.7606C14.3511 12.7333 14.3669 12.6894 14.3403 12.6291L14.6053 12.2921C14.8511 11.8517 15.176 11.4604 15.5638 11.1379V11.1384L16.0125 10.8234C16.0341 10.8105 16.0522 10.7925 16.065 10.7709C16.1937 10.6967 16.3253 10.6284 16.4598 10.5659C16.6195 10.4075 16.8029 10.2748 17.0033 10.1726C17.4483 10.0059 17.8885 9.82761 18.324 9.63761C18.4978 9.62073 18.6694 9.58639 18.8363 9.53511C19.4821 9.33694 20.1183 9.28061 20.7448 9.36611C21.0811 9.41195 21.3543 9.4332 21.5643 9.42986C21.4475 9.38331 21.3269 9.34709 21.2038 9.32161C21.0857 9.29709 20.9656 9.28386 20.845 9.28211ZM12.77 9.31761C12.779 9.31919 12.7879 9.32271 12.7961 9.32792C12.8042 9.33314 12.8114 9.33994 12.8173 9.34786C12.9947 9.59192 13.1863 9.8254 13.391 10.0471C13.4674 10.1123 13.5394 10.1819 13.6073 10.2561C13.6589 10.3119 13.6837 10.3637 13.6815 10.4114C13.6779 10.4817 13.6297 10.5224 13.537 10.5334C13.5166 10.5361 13.4949 10.531 13.4758 10.5189C13.2846 10.3989 13.0754 10.2109 12.848 9.95486C12.7075 9.79736 12.6136 9.65736 12.5663 9.53486C12.5618 9.5233 12.5599 9.51144 12.5608 9.50083C12.5617 9.49022 12.5655 9.48135 12.5715 9.47536L12.722 9.33086C12.7281 9.32509 12.7354 9.32093 12.7437 9.31865C12.7519 9.31636 12.7611 9.31601 12.77 9.31761ZM17.1243 9.94361C17.1581 9.94111 17.1931 9.94111 17.2293 9.94361C17.0843 9.93394 16.9589 9.96311 16.8533 10.0311C16.8524 10.0313 16.8516 10.0315 16.8508 10.0316C16.8516 10.0313 16.8524 10.031 16.8533 10.0306C16.9349 9.97936 17.0281 9.94944 17.1243 9.94361ZM16.681 10.0521C16.6647 10.0522 16.6485 10.053 16.6323 10.0546C16.6473 10.0528 16.6635 10.0519 16.681 10.0521ZM10.118 10.1259C10.1789 10.1165 10.2554 10.1684 10.3475 10.2816C10.4017 10.3819 10.4743 10.4621 10.5653 10.5221C10.6794 10.5979 10.7375 10.6367 10.7395 10.6384C10.9055 10.769 11.0704 10.9009 11.2343 11.0339C11.2786 11.0555 11.3145 11.0944 11.342 11.1506C11.3466 11.1601 11.3486 11.1705 11.348 11.181C11.3473 11.1915 11.3439 11.2016 11.3382 11.2104C11.3325 11.2192 11.3246 11.2264 11.3152 11.2313C11.3059 11.2361 11.2955 11.2385 11.285 11.2381C10.9857 11.2253 10.756 11.0955 10.596 10.8489C10.5843 10.8311 10.5666 10.8177 10.5458 10.8109C10.3819 10.7593 10.2446 10.646 10.163 10.4949C10.1531 10.4768 10.1357 10.4632 10.1145 10.4569C10.0721 10.4438 10.033 10.4218 9.99977 10.3924C9.99225 10.3857 9.98667 10.3769 9.98359 10.3669C9.98052 10.357 9.98006 10.3462 9.98227 10.3356C10.0119 10.2048 10.0572 10.135 10.118 10.1259ZM16.3353 10.5109C16.3198 10.5237 16.2985 10.53 16.2758 10.5284C16.1949 10.5224 16.1369 10.5395 16.1018 10.5799C16.1369 10.5395 16.1951 10.5223 16.2763 10.5281C16.2987 10.5298 16.3198 10.5234 16.3353 10.5109ZM3.00477 10.8739C2.94771 10.9503 2.8845 11.022 2.81577 11.0881C2.80296 11.2125 2.74759 11.3286 2.65902 11.4169C2.65851 11.4174 2.65801 11.418 2.65752 11.4186C2.65783 11.4178 2.65817 11.4169 2.65852 11.4161C2.74819 11.3261 2.80069 11.2168 2.81602 11.0881C2.88469 11.0219 2.9476 10.9505 3.00477 10.8739ZM15.327 10.9214C15.337 10.93 15.343 10.9407 15.345 10.9534C15.3467 10.9684 15.345 10.9836 15.34 10.9979C15.3292 11.0307 15.3032 11.071 15.262 11.1189C15.3025 11.0714 15.3293 11.0304 15.34 10.9979C15.345 10.9836 15.3467 10.9684 15.345 10.9534C15.3429 10.9409 15.3366 10.9295 15.327 10.9211V10.9214ZM15.1018 11.1064C15.1328 11.1364 15.1614 11.1528 15.1878 11.1556C15.1614 11.1531 15.1328 11.1369 15.1018 11.1064ZM3.21027 11.1281C3.28877 11.3384 3.39002 11.5356 3.52627 11.7136C3.39002 11.5361 3.28877 11.3386 3.21027 11.1281ZM29.8663 11.2961C30.3038 11.2691 30.6634 11.433 30.945 11.7879C30.9592 11.7932 30.9657 11.8052 30.9645 11.8239L31.2263 12.0124C31.2803 12.0514 31.2749 12.0724 31.21 12.0754C31.038 12.084 31.0501 12.1576 31.2463 12.2961C31.3051 12.3381 31.3468 12.3929 31.3713 12.4606C31.4216 12.6011 31.4433 12.7719 31.4363 12.9731C31.4354 12.9935 31.4425 13.0148 31.4563 13.0334C31.5079 13.1019 31.477 13.1289 31.3635 13.1144C31.3674 13.1271 31.374 13.1388 31.3827 13.1489C31.3914 13.1589 31.4022 13.167 31.4143 13.1726C31.4245 13.1772 31.4341 13.1829 31.443 13.1896C31.472 13.2179 31.4631 13.2309 31.4163 13.2286C31.4349 13.3536 31.4308 13.4767 31.4038 13.5979C31.4031 13.6013 31.4015 13.6045 31.3992 13.6071C31.3969 13.6098 31.3939 13.6119 31.3905 13.6133C31.3871 13.6147 31.3833 13.6153 31.3794 13.6151C31.3756 13.6149 31.3718 13.6139 31.3683 13.6121C31.3283 13.5916 31.2951 13.5957 31.2688 13.6244C31.2631 13.6308 31.2601 13.6396 31.2604 13.6493C31.2607 13.659 31.2641 13.6691 31.2703 13.6779C31.3856 13.8445 31.3544 13.9902 31.1765 14.1149C31.1699 14.2114 31.142 14.2226 31.093 14.1486C30.9564 14.2561 30.9639 14.2919 31.1155 14.2561C31.1276 14.2533 31.1393 14.2527 31.1492 14.2542C31.1591 14.2558 31.1667 14.2595 31.171 14.2649C31.178 14.2737 31.1816 14.2849 31.1818 14.2986C31.2944 14.3441 31.3353 14.416 31.3043 14.5144C31.3012 14.5239 31.2947 14.532 31.2862 14.5368C31.2777 14.5417 31.2678 14.5429 31.2585 14.5404L31.0455 14.4804L30.825 14.7469C30.8108 14.764 30.7907 14.7748 30.7693 14.7769C30.6854 14.7864 30.6485 14.8165 30.6585 14.8674C30.702 14.9115 30.7147 14.9588 30.6965 15.0091C30.6935 15.0173 30.6874 15.0247 30.6791 15.0303C30.6707 15.036 30.6603 15.0397 30.649 15.0411C30.6069 15.0477 30.5664 15.0624 30.53 15.0846C30.4955 15.1426 30.4389 15.1872 30.36 15.2184C30.2812 15.2495 30.1577 15.3164 29.9895 15.4191C29.9325 15.4768 29.8609 15.5038 29.7745 15.5001L29.511 15.4986C29.4325 15.4984 29.342 15.4775 29.2395 15.4359L28.5245 15.1476C28.4652 15.1234 28.3748 15.0634 28.2533 14.9676C27.7066 14.5373 27.4922 13.9716 27.61 13.2706C27.6105 13.2681 27.6124 13.2397 27.6155 13.1854C27.6182 13.1357 27.6403 13.0944 27.6818 13.0614L27.737 12.9614C27.7342 12.8532 27.777 12.7694 27.8655 12.7101C27.8635 12.6849 27.8673 12.6595 27.8765 12.6359C27.8857 12.6123 27.9002 12.5911 27.9188 12.5739C27.9438 12.5514 27.9628 12.523 27.974 12.4913C27.9852 12.4596 27.9882 12.4256 27.9828 12.3924C27.9641 12.3365 27.9316 12.3165 27.8853 12.3324C27.8792 12.3346 27.8726 12.3401 27.866 12.3483C27.8595 12.3564 27.8532 12.367 27.8478 12.3791L27.7503 12.5954C27.7459 12.6045 27.7389 12.6126 27.7299 12.619C27.7209 12.6254 27.7102 12.6299 27.6985 12.6321C27.6602 12.6394 27.6457 12.6222 27.655 12.5804C27.6859 12.446 27.7592 12.3344 27.875 12.2454C27.8824 12.2394 27.8916 12.2351 27.902 12.2325C27.9123 12.23 27.9236 12.2293 27.9353 12.2306C28.0236 12.2401 28.0953 12.2105 28.1503 12.1419C28.2274 11.9963 28.343 11.8747 28.4845 11.7904C28.8107 11.4717 29.2072 11.3148 29.674 11.3196H29.6745C29.738 11.3082 29.8019 11.3004 29.8663 11.2961ZM2.63277 11.4714C2.63276 11.4719 2.63276 11.4724 2.63277 11.4729L2.65127 11.6204L2.63227 11.4724C2.63243 11.472 2.6326 11.4717 2.63277 11.4714ZM19.9465 11.6364C19.8686 11.6348 19.7906 11.6397 19.7135 11.6511C18.9882 11.7569 18.3577 12.0165 17.822 12.4299C17.588 12.6109 17.4594 12.8578 17.4363 13.1706C17.4279 13.2843 17.4568 13.3808 17.5228 13.4601C17.605 13.5593 17.71 13.6372 17.8288 13.6871C18.0083 13.7648 18.1944 13.812 18.387 13.8289L18.6405 13.8714C18.7279 13.886 18.816 13.878 18.905 13.8474C18.9564 13.8295 19.118 13.8339 19.39 13.8606C19.3995 13.8616 19.4084 13.8657 19.4152 13.8722C19.4219 13.8788 19.4261 13.8874 19.427 13.8966C19.454 14.1813 19.497 14.4637 19.556 14.7439C19.5727 14.823 19.581 14.9289 19.581 15.0614C19.5804 15.1697 19.5934 15.2769 19.6203 15.3831C19.6221 15.3905 19.6264 15.3986 19.6328 15.4069C19.6392 15.4152 19.6476 15.4235 19.6575 15.4314L19.7275 15.4861C19.7276 15.5014 19.7244 15.5166 19.7181 15.5305C19.7119 15.5445 19.7027 15.557 19.6913 15.5671C19.6426 15.6263 19.6322 15.6896 19.66 15.7571C19.6688 15.7772 19.6737 15.7987 19.6745 15.8206C19.675 16.0339 19.724 16.2343 19.8215 16.4216C19.8231 16.4249 19.8239 16.4285 19.8239 16.4321C19.8239 16.4357 19.823 16.4392 19.8213 16.4424C19.8196 16.4456 19.8172 16.4483 19.8143 16.4504C19.8114 16.4524 19.808 16.4537 19.8045 16.4541C19.4125 16.4914 19.2075 16.5088 19.1895 16.5061C19.0529 16.4838 18.9127 16.501 18.7855 16.5559V16.5564L18.7548 16.5594V16.5589C18.6396 16.4993 18.5089 16.4764 18.3803 16.4934C18.2726 16.5079 18.1878 16.5092 18.1258 16.4974C17.9036 16.4556 17.6795 16.4247 17.4543 16.4046C17.4326 16.4023 17.4119 16.3944 17.3943 16.3816C17.2881 16.3088 17.1731 16.2954 17.0493 16.3416L16.7145 16.3586V16.3581C16.542 16.3783 16.3879 16.4389 16.252 16.5401C16.152 16.6148 16.0876 16.6643 16.0588 16.6886C15.9953 16.7433 15.9439 16.8106 15.908 16.8864C15.8544 16.9972 15.7935 17.1044 15.7255 17.2071C15.6557 17.309 15.6191 17.4299 15.6205 17.5534C15.6209 17.6412 15.635 17.7573 15.663 17.9016C15.6932 18.0589 15.7604 18.2014 15.8645 18.3289C15.867 18.3414 15.8726 18.3524 15.8813 18.3619V18.3624C15.8963 18.4369 15.9385 18.4884 16.008 18.5169C16.1389 18.6368 16.2835 18.7409 16.4388 18.8269C16.449 18.8328 16.4602 18.836 16.4708 18.8363C16.4815 18.8366 16.4912 18.8338 16.4988 18.8284C16.5103 18.8198 16.5196 18.8086 16.5258 18.7956C16.5304 18.786 16.5365 18.7777 16.5434 18.7717C16.5502 18.7657 16.5576 18.7621 16.5648 18.7614C16.5968 18.758 16.6034 18.7712 16.5848 18.8009C16.5148 18.9142 16.5358 18.9854 16.6478 19.0144C17.0273 19.1124 17.412 19.1784 17.802 19.2126C17.812 19.2133 17.8214 19.217 17.8291 19.2233C17.8367 19.2295 17.8421 19.2379 17.8445 19.2474C17.8729 19.359 17.8486 19.4559 17.7718 19.5379C17.7562 19.5547 17.7471 19.575 17.7463 19.5949C17.7372 19.9533 17.7445 20.3119 17.7683 20.6696C17.7929 21.0663 17.8719 21.4387 18.0053 21.7869C18.0594 21.9295 18.1434 22.0351 18.257 22.1036C18.6107 22.3164 18.9782 22.3481 19.3595 22.1986C19.4865 22.1479 19.5652 22.1124 19.5955 22.0919C19.6732 22.0399 19.7212 21.9613 19.7395 21.8561C19.7467 21.8114 19.7667 21.7697 19.797 21.7361C19.839 21.6899 19.8646 21.6562 19.8738 21.6349C20.0172 21.3229 20.0643 20.9752 20.009 20.6364C20.0597 20.2575 20.0451 19.8728 19.966 19.4989C19.9633 19.4861 19.959 19.4746 19.9534 19.4652C19.9478 19.4558 19.9411 19.4488 19.9338 19.4446C19.9061 19.4291 19.8873 19.4476 19.8773 19.5001C19.8673 19.5501 19.8427 19.5751 19.8035 19.5751C19.7938 19.5751 19.7845 19.5712 19.7771 19.5643C19.7697 19.5574 19.7649 19.5478 19.7635 19.5374C19.7578 19.5078 19.7608 19.4772 19.7719 19.4493C19.7831 19.4213 19.802 19.3971 19.8265 19.3796C19.8462 19.3646 19.8591 19.3464 19.8625 19.3289C19.8805 19.2389 19.8402 19.2009 19.7415 19.2151C19.707 19.2201 19.686 19.2157 19.6785 19.2019C19.6766 19.1984 19.676 19.1944 19.6767 19.1902C19.6773 19.186 19.6793 19.1817 19.6823 19.1776C19.6854 19.1735 19.6896 19.1697 19.6945 19.1665C19.6994 19.1632 19.705 19.1606 19.7108 19.1589C19.8914 19.1 20.076 19.0602 20.2645 19.0394C20.3375 19.0312 20.4272 19.0064 20.5335 18.9651C20.6593 18.9165 20.795 18.8991 20.929 18.9144C20.9462 18.916 21.0464 18.8937 21.2298 18.8474L21.428 18.7971C21.8078 18.6487 22.1859 18.496 22.5623 18.3391C22.6174 18.3163 22.6707 18.2896 22.722 18.2591C22.7732 18.2293 22.8221 18.1959 22.8685 18.1591L23.0163 17.9626C23.0501 17.9178 23.1105 17.8653 23.1975 17.8051C23.2692 17.7556 23.3281 17.6919 23.3743 17.6139C23.6125 17.3613 23.8228 17.0839 24.0018 16.7864C24.0551 16.5875 24.1163 16.3908 24.1853 16.1969C24.1996 16.1565 24.1996 16.1258 24.1853 16.1046C24.1653 16.0763 24.129 16.0659 24.0765 16.0734C24.019 16.0817 24.014 16.0692 24.0615 16.0359C24.0985 16.0099 24.1309 16.0027 24.1585 16.0144C24.1669 16.0181 24.176 16.0192 24.1841 16.0175C24.1922 16.0157 24.1987 16.0113 24.2023 16.0051C24.2773 15.8691 24.2841 15.7265 24.2228 15.5774C24.1948 15.508 24.1292 15.3926 24.026 15.2311C23.8949 15.0243 23.7209 14.9346 23.504 14.9621C23.4836 14.9649 23.4622 14.96 23.4435 14.9484C23.3964 14.9175 23.3497 14.9073 23.3035 14.9176V14.9171C22.9049 15.0046 22.5271 15.1975 22.1703 15.4959C22.1332 15.5266 22.0906 15.55 22.0448 15.5646C21.8069 15.6401 21.5674 15.7463 21.326 15.8831C21.0295 15.9891 20.739 16.1114 20.456 16.2496C20.4524 16.2513 20.4059 16.2852 20.3168 16.3514C20.2604 16.3934 20.1913 16.405 20.1093 16.3864C20.0437 16.3138 20.0069 16.2197 20.006 16.1219V16.1214C20.0379 16.013 20.0166 15.9174 19.9423 15.8346L19.9393 15.5364C19.9182 15.0266 19.8421 14.5205 19.7123 14.0271C19.7049 13.9454 19.6394 13.8816 19.5155 13.8356C19.49 13.8266 19.4902 13.8185 19.516 13.8114C19.7252 13.7525 19.9384 13.6964 20.1555 13.6429C20.3012 13.6065 20.5268 13.4809 20.8323 13.2659C21.0523 13.1117 21.1879 12.8879 21.239 12.5944C21.2824 12.3485 21.2291 12.1609 21.0793 12.0314C21.0064 11.9689 20.8494 11.8901 20.6083 11.7951C20.4653 11.7389 20.318 11.6943 20.1678 11.6619H20.1673C20.0946 11.6468 20.0207 11.6383 19.9465 11.6364ZM22.8685 18.1591C22.775 18.2326 22.672 18.2931 22.5623 18.3391C22.1859 18.496 21.8078 18.6487 21.428 18.7971L21.2205 18.9451C21.1961 18.9623 21.1751 18.98 21.1587 18.9973C21.1424 19.0145 21.1311 19.0308 21.1255 19.0451C21.0769 19.1781 21.1 19.2164 21.195 19.1601C21.3225 19.0851 21.4552 19.0218 21.593 18.9701C21.8174 18.8861 21.9536 18.8325 22.0018 18.8094C22.4434 18.5959 22.863 18.3397 23.2545 18.0444C23.2633 18.038 23.27 18.0293 23.2734 18.0199C23.2768 18.0104 23.2767 18.0007 23.2733 17.9924C23.2533 17.945 23.2173 17.9499 23.1653 18.0071C23.0908 18.0891 22.9919 18.1399 22.8685 18.1591ZM28.0433 11.7009C28.0408 11.7088 28.037 11.7162 28.032 11.7229H28.0315C28.0366 11.7162 28.0406 11.7088 28.0433 11.7009ZM3.67202 11.8401H3.67252C3.72752 11.8851 3.75894 11.9468 3.76677 12.0251C3.7706 12.0611 3.77977 12.0867 3.79427 12.1019H3.79352C3.77935 12.0869 3.77044 12.0613 3.76677 12.0251C3.76437 11.9894 3.75471 11.9546 3.73837 11.9228C3.72203 11.891 3.69937 11.8629 3.67177 11.8401H3.67202ZM2.36827 11.9994L2.36677 12.0051L2.36527 12.0076L2.36627 12.0051L2.36827 11.9994ZM2.39852 12.2061H2.40402C2.40102 12.2061 2.3981 12.2064 2.39527 12.2069L2.39852 12.2061ZM2.30227 12.2726L2.30277 12.2751V12.2756L2.15827 12.4876C2.15792 12.4884 2.15759 12.4893 2.15727 12.4901C2.15742 12.4893 2.15759 12.4884 2.15777 12.4876L2.30227 12.2751V12.2726ZM20.6608 12.3469H20.6613C20.6619 12.3478 20.6625 12.3488 20.663 12.3499C20.6623 12.3488 20.6617 12.3478 20.6608 12.3469ZM2.14277 12.5466C2.14817 12.5952 2.14332 12.6445 2.12852 12.6911C2.11352 12.7411 2.08852 12.7934 2.05352 12.8479L2.05152 12.8509L2.05277 12.8479C2.08551 12.7996 2.11102 12.7468 2.12852 12.6911C2.14352 12.6409 2.14827 12.5928 2.14277 12.5466ZM10.0118 12.5809C10.0459 12.5792 10.08 12.5833 10.1128 12.5931C10.3188 12.6536 10.4139 12.7506 10.398 12.8841C10.3965 12.8989 10.399 12.9139 10.4054 12.9273C10.4118 12.9407 10.4218 12.9521 10.4343 12.9601C10.5373 13.0261 10.5794 13.1044 10.5605 13.1951C10.5477 13.2571 10.5634 13.3799 10.6075 13.5636C10.6264 13.6362 10.6302 13.7118 10.6188 13.7859C10.6073 13.8599 10.5809 13.9309 10.541 13.9944C10.4486 14.1502 10.3202 14.2816 10.1665 14.3776C10.1579 14.383 10.1481 14.3866 10.1377 14.3882C10.1273 14.3898 10.1166 14.3893 10.106 14.3869L9.67352 14.2894C9.65202 14.2842 9.63322 14.2731 9.61977 14.2576C9.36644 13.9596 9.28244 13.6188 9.36777 13.2351C9.3779 13.1748 9.38151 13.1137 9.37852 13.0526C9.37602 12.9723 9.40094 12.9125 9.45327 12.8734C9.59468 12.7649 9.74904 12.6745 9.91277 12.6041C9.94544 12.5904 9.97844 12.5827 10.0118 12.5809ZM27.3628 12.8396C27.2908 12.9918 27.2537 13.1405 27.2515 13.2859C27.2509 13.3344 27.2541 13.3824 27.2613 13.4299C27.2641 13.4513 27.2606 13.4733 27.2513 13.4934C27.2163 13.568 27.1989 13.63 27.1993 13.6794C27.1989 13.6299 27.2164 13.5679 27.2515 13.4934C27.2606 13.4733 27.2639 13.4512 27.2608 13.4299C27.2538 13.3822 27.2507 13.334 27.2515 13.2859C27.2535 13.1409 27.2904 12.9923 27.3623 12.8401L27.3628 12.8396ZM19.6465 12.9061L19.649 12.9069C19.6474 12.9064 19.6457 12.9064 19.644 12.9069C19.645 12.9069 19.6458 12.9059 19.6465 12.9061ZM19.641 12.9079L19.6393 12.9089V12.9084C19.6398 12.9079 19.6405 12.9084 19.641 12.9079ZM14.0368 12.9529C14.019 12.9611 14.0022 12.9714 13.9868 12.9836C13.9579 13.0069 13.9361 13.0378 13.9238 13.0729C13.933 13.046 13.9478 13.0214 13.9673 13.0007C13.9868 12.98 14.0105 12.9637 14.0368 12.9529ZM18.6915 13.0871C18.6941 13.0986 18.6981 13.1098 18.7033 13.1204C18.7086 13.1316 18.7152 13.1423 18.7228 13.1521C18.7118 13.1373 18.7028 13.1211 18.6963 13.1039L18.6915 13.0871ZM1.34002 13.4821H1.34052V13.4836L1.34002 13.4821ZM1.75452 13.5871L1.74577 13.6131L1.75452 13.6199L1.74577 13.6136L1.74277 13.6179L1.74527 13.6129C1.74902 13.6024 1.75102 13.5976 1.75452 13.5871ZM1.61052 14.0066V14.0104C1.60969 14.0247 1.54977 14.2322 1.43077 14.6329L1.42877 14.6399L1.43027 14.6331C1.54927 14.2323 1.60919 14.0248 1.61002 14.0106L1.61052 14.0066ZM26.7355 14.1354C26.7205 14.1432 26.7104 14.1684 26.705 14.2111C26.7038 14.2206 26.7048 14.2307 26.7082 14.2409C26.7116 14.2511 26.7171 14.261 26.7245 14.2701C26.742 14.2913 26.755 14.3121 26.7635 14.3326C26.7722 14.3514 26.7766 14.3719 26.7765 14.3926C26.7763 14.4133 26.7715 14.4337 26.7625 14.4524C26.7522 14.4734 26.7388 14.4927 26.7225 14.5096C26.7147 14.5177 26.709 14.5271 26.7057 14.537C26.7025 14.5469 26.7019 14.5569 26.704 14.5661C26.7072 14.5794 26.7121 14.5922 26.7188 14.6041H26.7183C26.7118 14.5921 26.707 14.5794 26.704 14.5661C26.7018 14.5569 26.7023 14.5469 26.7055 14.5371C26.7086 14.5272 26.7143 14.5177 26.722 14.5096C26.7384 14.4928 26.7521 14.4734 26.7625 14.4524C26.7715 14.4337 26.7763 14.4133 26.7765 14.3926C26.7766 14.3719 26.7722 14.3514 26.7635 14.3326C26.7535 14.3099 26.7402 14.2889 26.724 14.2701C26.7166 14.261 26.7111 14.2511 26.7077 14.2409C26.7043 14.2307 26.7033 14.2206 26.7045 14.2111C26.71 14.1684 26.7205 14.1432 26.7355 14.1354ZM31.4503 14.2464C31.4505 14.2464 31.4508 14.2464 31.451 14.2464C31.4505 14.2467 31.45 14.247 31.4495 14.2474C31.4497 14.247 31.4501 14.2467 31.4503 14.2464ZM26.9063 14.4886C26.9149 14.4953 26.9237 14.5059 26.9325 14.5204C26.9373 14.5279 26.9402 14.5373 26.9409 14.5479C26.9401 14.5373 26.9369 14.5279 26.932 14.5204C26.9252 14.5084 26.9165 14.4977 26.9063 14.4886ZM27.01 14.7649L27.0105 14.7654C27.0504 14.8795 27.0839 14.9941 27.111 15.1091C27.1936 15.4535 27.2202 15.809 27.1898 16.1619L27.1373 16.7864L27.1893 16.1614C27.2199 15.8087 27.1933 15.4534 27.111 15.1091C27.0835 14.9939 27.05 14.8792 27.01 14.7649ZM27.503 14.8504L27.984 15.3129L27.503 14.8509V14.8504ZM1.39827 14.9646L1.39877 14.9709C1.39901 14.9724 1.39934 14.9739 1.39977 14.9754C1.39917 14.9739 1.39867 14.9724 1.39827 14.9709V14.9646ZM23.8995 15.2586C23.911 15.2593 23.922 15.2645 23.93 15.2731V15.2736C23.9221 15.265 23.9111 15.2597 23.8996 15.2589C23.888 15.2581 23.8768 15.2618 23.8683 15.2694C23.8767 15.2618 23.888 15.2579 23.8995 15.2586ZM23.216 15.2844C23.2628 15.2838 23.3096 15.2866 23.356 15.2926C23.3248 15.2913 23.2936 15.2888 23.2625 15.2851C23.2021 15.2831 23.1416 15.2867 23.0818 15.2956C23.0524 15.2999 23.0234 15.3058 22.9948 15.3131C22.9664 15.3208 22.9384 15.3298 22.9108 15.3401C22.9661 15.3194 23.0234 15.3045 23.0818 15.2956C23.1262 15.2888 23.1711 15.2851 23.216 15.2844ZM13.2743 15.3239V15.3319L13.2748 15.3344L13.2738 15.3319L13.2743 15.3239ZM13.0063 15.4124L13.0068 15.4154H13.0063C13.0058 15.4139 13.0065 15.4136 13.0063 15.4124ZM23.7395 15.4571C23.7062 15.475 23.676 15.4981 23.65 15.5256C23.6661 15.5136 23.6812 15.5002 23.695 15.4856C23.709 15.4751 23.7239 15.4656 23.7395 15.4571ZM28.7013 15.5866C28.8888 15.6589 29.0604 15.7325 29.216 15.8074C29.216 15.8075 29.216 15.8077 29.216 15.8079C29.0475 15.7273 28.8757 15.6535 28.7013 15.5866ZM22.279 15.5989C22.1893 15.6697 22.0955 15.7354 21.9983 15.7956C22.03 15.7735 22.0624 15.7525 22.0955 15.7326C22.2005 15.6593 22.2617 15.6147 22.279 15.5989ZM22.927 15.7411C22.927 15.741 22.927 15.7412 22.927 15.7411ZM13.01 15.8269C13.0102 15.8269 13.0104 15.8269 13.0105 15.8269C13.0104 15.8272 13.0102 15.8275 13.01 15.8279C13.01 15.8275 13.01 15.8272 13.01 15.8269ZM22.8665 15.9156C22.8167 15.9933 22.7756 16.0763 22.744 16.1631C22.7333 16.1921 22.7236 16.2214 22.715 16.2511C22.7319 16.1919 22.7531 16.134 22.7785 16.0779C22.8038 16.0217 22.8332 15.9675 22.8665 15.9156ZM12.9715 15.9171C12.974 15.9461 12.9804 15.9758 12.9905 16.0061C12.9963 16.0231 12.9968 16.0451 12.992 16.0691L12.9598 16.2179C12.9581 16.2253 12.9584 16.2346 12.9605 16.2454C12.9583 16.2346 12.9577 16.2253 12.9593 16.2179L12.9915 16.0696C12.9963 16.0456 12.9958 16.0236 12.99 16.0066C12.9802 15.9776 12.974 15.9476 12.9715 15.9171ZM22.7528 15.9529H22.7533L22.7503 15.9564L22.7528 15.9529ZM19.7978 16.0886H19.799L19.7963 16.0896L19.7978 16.0886ZM23.9958 16.1194C23.9959 16.1197 23.9961 16.12 23.9963 16.1204H23.9958C23.9958 16.12 23.9958 16.1197 23.9958 16.1194ZM21.865 16.2376C21.8805 16.2372 21.8958 16.242 21.9085 16.2511C21.8958 16.2421 21.8805 16.2376 21.865 16.2381H21.8548L21.865 16.2376ZM23.4183 16.4549C23.4184 16.4552 23.4186 16.4555 23.4188 16.4559C23.4191 16.456 23.4194 16.4562 23.4198 16.4564C23.4193 16.4564 23.4188 16.4564 23.4183 16.4564C23.4183 16.4559 23.4183 16.4554 23.4183 16.4549ZM16.9198 16.5241C16.9131 16.5363 16.8991 16.5455 16.8778 16.5519C16.8989 16.5452 16.9129 16.5358 16.9198 16.5241ZM16.823 16.5721C16.8232 16.5721 16.8234 16.5721 16.8235 16.5721C16.8219 16.5755 16.8211 16.5793 16.8213 16.5831C16.8215 16.5869 16.8226 16.5906 16.8245 16.5939L16.824 16.5934C16.8221 16.5901 16.821 16.5865 16.8209 16.5827C16.8207 16.579 16.8214 16.5755 16.823 16.5721ZM19.3958 16.5774C19.3964 16.5775 19.3971 16.5777 19.3978 16.5779C19.3971 16.5778 19.3964 16.5778 19.3958 16.5779H19.3865L19.3958 16.5774ZM8.80902 16.5916C9.13902 16.6004 9.4331 16.6676 9.69127 16.7931C9.7466 16.7691 9.79219 16.7799 9.82802 16.8256C9.83254 16.8312 9.8394 16.8365 9.84819 16.8413C9.85699 16.846 9.86755 16.85 9.87927 16.8531L9.96377 16.8749C9.97161 16.8768 9.97824 16.8829 9.98232 16.8919C9.9864 16.901 9.98763 16.9123 9.98577 16.9236C9.96244 17.0556 10.0101 17.1504 10.1288 17.2081C10.2141 17.2814 10.3008 17.3523 10.3888 17.4206C10.4186 17.4431 10.4353 17.4649 10.4388 17.4861C10.4409 17.4972 10.4404 17.5086 10.4375 17.5196C10.4345 17.5305 10.4292 17.5406 10.4218 17.5491C10.4165 17.5562 10.4137 17.5646 10.4137 17.573C10.4138 17.5814 10.4169 17.5891 10.4223 17.5949C10.4706 17.6449 10.495 17.7056 10.4955 17.7771C10.4958 17.7998 10.5019 17.821 10.513 17.8381C10.5943 17.96 10.6451 18.0997 10.661 18.2454C10.6812 18.2912 10.7074 18.333 10.7395 18.3709C10.7441 18.3765 10.7481 18.3846 10.7514 18.3947C10.7547 18.4048 10.7571 18.4168 10.7585 18.4299L10.8113 18.8599C10.8169 18.904 10.8155 18.9374 10.807 18.9601C10.7531 19.1132 10.6954 19.2649 10.634 19.4151L10.5335 19.6896C10.4175 20.0079 10.2102 20.2675 9.91152 20.4684C9.8825 20.4879 9.85747 20.5127 9.83777 20.5416C9.7766 20.6289 9.70127 20.6736 9.61177 20.6756C9.59024 20.6754 9.56893 20.6798 9.54927 20.6886C9.27977 20.8161 9.02619 20.8711 8.78852 20.8536C8.71002 20.8479 8.66185 20.8761 8.64402 20.9381C8.64311 20.9418 8.64138 20.9452 8.63899 20.948C8.63661 20.9509 8.63362 20.9532 8.63031 20.9546C8.62699 20.9561 8.62343 20.9567 8.61994 20.9564C8.61645 20.956 8.61313 20.9548 8.61027 20.9529C8.48994 20.8772 8.38202 20.8499 8.28652 20.8709C8.18152 20.8934 8.0951 20.9026 8.02727 20.8986C7.9768 20.8955 7.92629 20.893 7.87577 20.8909C7.7189 20.8926 7.56522 20.8466 7.43502 20.7591C7.36611 20.7137 7.29834 20.6666 7.23177 20.6179C7.1646 20.5641 7.11285 20.4936 7.08177 20.4134C7.07794 20.4041 7.07179 20.3959 7.06389 20.3896C7.05599 20.3833 7.04658 20.379 7.03652 20.3771L6.91902 20.3556C6.89913 20.3519 6.88046 20.3391 6.86702 20.3201L6.50127 19.7926C6.48895 19.7751 6.48233 19.7543 6.48233 19.733C6.48233 19.7118 6.48895 19.6912 6.50127 19.6741C6.52877 19.6361 6.52652 19.6056 6.49452 19.5826C6.37769 19.6171 6.3311 19.5833 6.35477 19.4811C6.35925 19.4601 6.35865 19.4383 6.35302 19.4176C6.3441 19.3866 6.34172 19.3542 6.34603 19.3222C6.35033 19.2903 6.36123 19.2596 6.37802 19.2321L6.49502 18.6466C6.48068 18.5888 6.47946 18.5284 6.49145 18.47C6.50343 18.4116 6.52831 18.3567 6.56427 18.3091L6.62877 18.0949C6.76344 17.6207 7.02627 17.2351 7.41727 16.9381C7.45977 16.8679 7.52019 16.8188 7.59852 16.7906C7.80719 16.6964 8.0966 16.6337 8.46677 16.6024C8.58494 16.5924 8.69902 16.5888 8.80902 16.5916ZM22.2518 16.6039C22.2209 16.6349 22.1868 16.6629 22.1493 16.6879V16.6874C22.1868 16.6625 22.2209 16.6347 22.2518 16.6039ZM22.4978 16.6066L22.778 16.8504C22.7854 16.857 22.7944 16.8619 22.8042 16.865C22.7944 16.862 22.7855 16.8574 22.778 16.8509L22.4978 16.6066ZM23.6928 16.7009L23.6953 16.7019C23.6953 16.702 23.6953 16.7022 23.6953 16.7024L23.6928 16.7009ZM20.9793 16.7019C20.9543 16.7134 20.9293 16.7254 20.9065 16.7394C20.9315 16.7285 20.956 16.716 20.9793 16.7019ZM22.991 16.7336C22.9909 16.7341 22.9907 16.7346 22.9905 16.7351C22.99 16.736 22.9895 16.7368 22.989 16.7376C22.9894 16.7368 22.9897 16.7359 22.99 16.7351C22.9904 16.7346 22.9907 16.7341 22.991 16.7336ZM17.8625 16.7429C17.8627 16.7429 17.8629 16.7429 17.863 16.7429C17.8634 16.7437 17.8637 16.7445 17.864 16.7454C17.8636 16.7445 17.8631 16.7437 17.8625 16.7429ZM21.7868 16.7429C21.762 16.7681 21.7393 16.7954 21.719 16.8244C21.6797 16.88 21.6506 16.9422 21.633 17.0081C21.6243 17.0415 21.6184 17.0757 21.6155 17.1101C21.6238 17.0073 21.6595 16.9086 21.719 16.8244C21.739 16.7962 21.7616 16.7689 21.7868 16.7429ZM17.5515 16.7586C17.5572 16.7592 17.5628 16.7605 17.5683 16.7624C17.5581 16.7576 17.5467 16.7564 17.5358 16.7589C17.541 16.7579 17.5463 16.7579 17.5515 16.7586ZM17.866 16.7706C17.8659 16.7716 17.8657 16.7726 17.8655 16.7736H17.865C17.8654 16.7726 17.8657 16.7716 17.866 16.7706ZM22.5003 16.7932C22.4911 16.7981 22.4834 16.8052 22.4778 16.8139C22.4453 16.8638 22.422 16.9192 22.409 16.9774C22.4045 16.9971 22.4011 17.0172 22.399 17.0374C22.4036 16.9974 22.4123 16.9581 22.4255 16.9201C22.4387 16.8827 22.4564 16.8469 22.478 16.8136C22.4836 16.8049 22.4912 16.7981 22.5003 16.7932ZM22.6443 16.8064C22.6634 16.8122 22.6809 16.8221 22.6957 16.8355C22.7105 16.8489 22.7221 16.8654 22.7298 16.8839C22.7196 16.8595 22.7025 16.8386 22.6805 16.8239C22.6689 16.8171 22.6568 16.8112 22.6443 16.8064ZM18.2908 16.8201C18.3068 16.8286 18.3226 16.8351 18.3383 16.8396C18.3684 16.8486 18.4003 16.8493 18.4308 16.8416C18.4152 16.8416 18.3997 16.8433 18.3845 16.8469C18.3688 16.8464 18.3533 16.8442 18.3383 16.8396C18.3218 16.8348 18.3059 16.8281 18.2908 16.8201ZM20.2845 16.8521L20.284 16.8539C20.2323 16.9159 20.1849 16.9815 20.1423 17.0501C20.1634 17.016 20.1858 16.9827 20.2093 16.9501C20.2328 16.9171 20.2577 16.885 20.284 16.8539H20.2835L20.2845 16.8521ZM17.4393 16.8551C17.4254 16.86 17.412 16.8661 17.3993 16.8734C17.3885 16.8794 17.3782 16.8863 17.3685 16.8939C17.36 16.9008 17.3524 16.9087 17.346 16.9176C17.3342 16.9342 17.3278 16.954 17.3275 16.9744C17.3276 16.9587 17.3313 16.9432 17.3384 16.9292C17.3455 16.9152 17.3558 16.9031 17.3685 16.8939C17.3782 16.8863 17.3885 16.8794 17.3993 16.8734C17.4111 16.8669 17.4244 16.8608 17.4393 16.8551ZM22.1288 16.8971C22.1671 16.8965 22.205 16.9057 22.2388 16.9239C22.2204 16.9191 22.2026 16.9124 22.1858 16.9036C22.1671 16.8993 22.148 16.8971 22.1288 16.8971ZM22.1288 16.8971C22.1086 16.8971 22.0876 16.8996 22.0658 16.9046C22.0322 16.914 21.9994 16.9257 21.9675 16.9396C21.9412 16.951 21.916 16.9651 21.8925 16.9816C21.9135 16.9666 21.9385 16.9526 21.9675 16.9396C21.9964 16.9266 22.0291 16.9149 22.0658 16.9046C22.0864 16.8999 22.1076 16.8974 22.1288 16.8971ZM17.28 16.9146C17.2686 16.9242 17.2551 16.9308 17.2405 16.9339C17.2218 16.9376 17.2027 16.9383 17.1838 16.9359L17.1493 16.9319C17.1623 16.9334 17.1705 16.9336 17.1843 16.9354C17.203 16.9379 17.222 16.9374 17.2405 16.9339C17.2549 16.9305 17.2684 16.9238 17.28 16.9146ZM19.4763 16.9166C19.4939 16.938 19.5139 16.9572 19.536 16.9739C19.5256 16.9665 19.5157 16.9583 19.5065 16.9494C19.496 16.939 19.486 16.9281 19.4765 16.9169L19.4763 16.9166ZM16.5863 16.9176C16.5848 16.9191 16.5828 16.9196 16.5813 16.9211V16.9206L16.5863 16.9176ZM18.2258 16.9186C18.2302 16.9182 18.2347 16.9185 18.239 16.9196C18.2301 16.9176 18.2207 16.9189 18.2128 16.9232C18.2048 16.9275 18.1988 16.9346 18.196 16.9431C18.1981 16.9366 18.202 16.9309 18.2073 16.9266C18.2126 16.9222 18.2189 16.9195 18.2258 16.9186ZM23.2575 16.9211L23.259 16.9226L23.2555 16.9216L23.2575 16.9211ZM16.7475 16.9216C16.7903 16.9216 16.8322 16.9345 16.8675 16.9586C16.8251 16.9286 16.773 16.9159 16.7215 16.9229C16.704 16.9252 16.6859 16.9294 16.6673 16.9354C16.6931 16.9268 16.7203 16.9222 16.7475 16.9216ZM19.7758 16.9241H19.7763L19.7753 16.9256L19.7758 16.9241ZM19.3198 16.9676C19.344 16.9719 19.3667 16.9825 19.3855 16.9984C19.395 17.0064 19.4036 17.0158 19.4113 17.0266C19.4193 17.0383 19.4263 17.0507 19.4323 17.0636C19.4388 17.0776 19.4444 17.0929 19.449 17.1096C19.4446 17.0939 19.439 17.0785 19.4323 17.0636C19.4263 17.0507 19.4193 17.0383 19.4113 17.0266C19.3968 17.006 19.3774 16.9893 19.3548 16.9781C19.3436 16.9731 19.3318 16.9698 19.3198 16.9676ZM19.7313 16.9656C19.704 16.9832 19.6782 17.003 19.654 17.0246C19.5817 17.0892 19.527 17.171 19.4948 17.2624H19.4945C19.506 17.2309 19.5197 17.2011 19.5355 17.1731C19.5823 17.0886 19.6496 17.0172 19.7313 16.9656ZM17.0705 16.9869C17.0756 16.9854 17.0808 16.9854 17.0855 16.9869C17.0782 16.9845 17.07 16.9858 17.0625 16.9904C17.0551 16.9951 17.049 17.0027 17.0455 17.0119C17.0478 17.0058 17.0514 17.0003 17.0557 16.9959C17.0601 16.9915 17.0652 16.9884 17.0705 16.9869ZM17.3405 17.0956C17.3425 17.1078 17.3411 17.1203 17.3363 17.1316C17.3411 17.1202 17.3426 17.1076 17.3405 17.0954V17.0956ZM18.5838 17.1019C18.5845 17.1022 18.5851 17.1025 18.5858 17.1029C18.5851 17.1027 18.5844 17.1025 18.5838 17.1024H18.5803L18.5838 17.1019ZM12.9788 17.2511C12.9867 17.2595 12.9962 17.2664 13.0068 17.2711H13.0063C12.9958 17.2663 12.9866 17.2595 12.9788 17.2511ZM17.6278 17.2319L17.6093 17.2459C17.6153 17.2409 17.6214 17.2364 17.6278 17.2319ZM17.1073 17.4031C17.0972 17.4157 17.0904 17.4305 17.0873 17.4464C17.0842 17.4623 17.085 17.4788 17.0898 17.4944C17.0952 17.5131 17.1037 17.5309 17.115 17.5469C17.1289 17.5682 17.1427 17.5865 17.1565 17.6019C17.1413 17.5845 17.1272 17.5661 17.1145 17.5469C17.1033 17.5309 17.0951 17.5131 17.0898 17.4944C17.085 17.4788 17.0842 17.4623 17.0873 17.4464C17.0904 17.4305 17.0972 17.4157 17.1073 17.4031ZM17.953 17.4084L17.951 17.4166C17.9432 17.451 17.9255 17.4821 17.9003 17.5061H17.8998C17.925 17.4821 17.9427 17.451 17.9505 17.4166L17.953 17.4084ZM21.4573 17.4774C21.4522 17.4931 21.4504 17.5097 21.4518 17.5262C21.4532 17.5427 21.4579 17.5587 21.4655 17.5734C21.4505 17.5435 21.4476 17.5093 21.4573 17.4774ZM29.3435 17.4699C29.3434 17.4974 29.3337 17.6678 29.3145 17.9811L29.3143 17.9816C29.3336 17.6683 29.3434 17.4977 29.3435 17.4699ZM13.199 17.5086C13.1993 17.509 13.1997 17.5094 13.2 17.5099C13.1999 17.5099 13.1997 17.5099 13.1995 17.5099C13.1993 17.5094 13.1992 17.509 13.199 17.5086ZM20.339 17.5251C20.2988 17.643 20.2498 17.7578 20.1925 17.8684C20.2327 17.7505 20.2817 17.6357 20.339 17.5251ZM19.8665 17.5531C19.7889 17.6591 19.7235 17.7735 19.6715 17.8941C19.6474 18.0289 19.6214 18.0345 19.5935 17.9109C19.607 17.9136 19.6209 17.9135 19.6344 17.9107C19.6479 17.9078 19.6606 17.9021 19.6718 17.8941C19.724 17.7736 19.7893 17.6594 19.8665 17.5531ZM17.091 17.6379C17.079 17.6349 17.0664 17.6352 17.0546 17.6388C17.0427 17.6423 17.032 17.6489 17.0235 17.6579C16.937 17.7495 16.8558 17.8461 16.7805 17.9471C16.8559 17.8461 16.9372 17.7496 17.0238 17.6581C17.0323 17.6491 17.043 17.6425 17.0548 17.639C17.0667 17.6355 17.0793 17.6352 17.0913 17.6381L17.091 17.6379ZM18.328 17.6756C18.3275 17.686 18.3292 17.6968 18.3328 17.7074L18.3738 17.8244V17.8259L18.3733 17.8244L18.3328 17.7074C18.3292 17.6968 18.3275 17.686 18.328 17.6756ZM17.218 17.7126C17.2212 17.7208 17.2228 17.7294 17.223 17.7381C17.2229 17.7482 17.2212 17.7583 17.218 17.7679C17.2212 17.7582 17.2229 17.7481 17.223 17.7379C17.2228 17.7293 17.2211 17.7206 17.218 17.7126ZM19.261 17.7504L19.2405 17.7824C19.2479 17.7714 19.2547 17.7609 19.261 17.7504ZM18.735 17.7529C18.6866 17.7872 18.645 17.8304 18.6125 17.8801C18.6014 17.8978 18.5858 17.955 18.5658 18.0519C18.5856 17.9552 18.601 17.8979 18.612 17.8801C18.6447 17.8303 18.6864 17.7873 18.735 17.7529ZM17.2615 17.7591H17.262C17.2553 17.7652 17.2506 17.7734 17.2485 17.7827C17.2505 17.7734 17.2549 17.7653 17.2615 17.7591ZM18.569 17.7704C18.5318 17.879 18.4822 17.983 18.4213 18.0804C18.4027 18.1099 18.3798 18.1366 18.3533 18.1594C18.3664 18.1483 18.3786 18.1361 18.3898 18.1231C18.4013 18.1099 18.4118 18.0957 18.4213 18.0804C18.4817 17.9827 18.5312 17.8788 18.569 17.7704ZM18.2468 17.8099C18.2675 17.8103 18.2881 17.8139 18.3078 17.8206C18.2942 17.8164 18.2803 17.8133 18.2663 17.8114C18.2538 17.8098 18.2412 17.8098 18.2288 17.8114C18.2053 17.8149 18.1832 17.825 18.1653 17.8406C18.1879 17.8209 18.2168 17.81 18.2468 17.8099ZM17.6043 17.9744C17.5991 17.9957 17.5875 18.0146 17.571 18.0281H17.5705C17.5872 18.0146 17.599 17.9958 17.6043 17.9744ZM17.2005 17.9949C17.1628 18.028 17.1296 18.0659 17.1018 18.1076C17.1182 18.0892 17.1332 18.0697 17.1468 18.0491C17.1633 18.0301 17.1812 18.012 17.2005 17.9949ZM13.1483 18.0921C13.1394 18.1229 13.1278 18.1426 13.1133 18.1511C13.1278 18.1431 13.1394 18.1234 13.1483 18.0921ZM16.372 18.2209C16.3371 18.233 16.3008 18.2406 16.264 18.2434C16.2632 18.2437 16.2623 18.244 16.2615 18.2444C16.2623 18.2438 16.2632 18.2433 16.264 18.2429C16.303 18.2399 16.3392 18.2325 16.372 18.2209ZM17.4535 18.1359H17.454L17.4438 18.1471L17.4535 18.1359ZM13.2243 18.1956L13.2983 18.2481C13.3166 18.2681 13.3333 18.2893 13.3483 18.3116C13.3329 18.2896 13.316 18.2686 13.2978 18.2489C13.2738 18.2306 13.2491 18.2128 13.2243 18.1956ZM18.4553 18.2086C18.4371 18.2195 18.4199 18.2319 18.404 18.2459C18.4165 18.2344 18.4336 18.2219 18.4553 18.2086ZM21.2518 18.2976L21.2478 18.2996C21.2453 18.3004 21.2443 18.3001 21.242 18.3011L21.2478 18.2991L21.2518 18.2976ZM18.9613 18.3059L18.947 18.3289C18.952 18.3214 18.9568 18.3137 18.9613 18.3059ZM19.5125 18.4831L19.5243 18.6131V18.6184L19.5238 18.6131L19.5125 18.4831ZM18.3978 18.4461C18.3681 18.4617 18.3392 18.4788 18.3113 18.4974C18.3379 18.4794 18.3669 18.4623 18.3978 18.4461ZM16.759 18.4739C16.7416 18.5063 16.7201 18.5363 16.695 18.5631C16.7058 18.5485 16.7174 18.5345 16.7298 18.5211C16.7404 18.5063 16.7502 18.4907 16.759 18.4739ZM17.8435 18.5001L17.8348 18.5139C17.8346 18.5139 17.8344 18.5139 17.8343 18.5139L17.8435 18.5001ZM17.1868 18.5094L17.1805 18.5219C17.1664 18.5453 17.1507 18.5678 17.1335 18.5891L17.131 18.5929C17.132 18.5916 17.132 18.5904 17.133 18.5891C17.1589 18.5548 17.1745 18.5323 17.18 18.5216L17.1868 18.5094ZM18.7043 18.7496C18.6866 18.8146 18.6683 18.8791 18.6493 18.9431C18.6094 19.0753 18.6563 19.1684 18.7898 19.2224C18.7998 19.2264 18.8088 19.2326 18.8162 19.2403C18.8236 19.2481 18.8293 19.2573 18.8328 19.2674C18.8811 19.3997 18.8593 19.4281 18.7673 19.3526C18.6473 19.2548 18.6098 19.2814 18.6548 19.4326C18.7073 19.6109 18.7313 19.7934 18.7268 19.9801C18.7263 20.0009 18.7328 20.0219 18.7453 20.0401C18.8184 20.1469 18.8439 20.2678 18.8215 20.4026C18.8149 20.4443 18.8355 20.5493 18.8835 20.7176C18.8903 20.7413 18.9031 20.7602 18.9193 20.7701C18.9531 20.7911 18.9781 20.7819 18.9943 20.7424C19.0028 20.7169 19.0044 20.6896 18.9988 20.6634C18.9649 20.4555 18.9559 20.2443 18.972 20.0344C18.9427 19.7325 18.9169 19.3925 18.8948 19.0144C18.893 18.9812 18.8836 18.949 18.8673 18.9201C18.8286 18.8506 18.8199 18.7985 18.841 18.7639C19.0057 18.7499 19.151 18.8153 19.277 18.9601C19.3245 19.0141 19.3906 19.0299 19.4753 19.0076C19.4802 19.0063 19.4853 19.0058 19.4903 19.0062C19.4953 19.0065 19.5 19.0077 19.5043 19.0097C19.5085 19.0116 19.5121 19.0143 19.515 19.0176C19.5178 19.0208 19.5198 19.0246 19.5208 19.0286C19.5245 19.045 19.5248 19.062 19.5218 19.0786C19.5166 19.1037 19.5171 19.1263 19.5233 19.1429C19.6826 19.5884 19.7495 20.0439 19.724 20.5094C19.7017 20.9204 19.6889 21.1395 19.6858 21.1669C19.6595 21.3929 19.5765 21.6087 19.4445 21.7941C19.371 21.8974 19.2719 21.9715 19.147 22.0164C19.0336 22.0574 18.911 22.0665 18.7928 22.0426C18.6339 22.0119 18.5078 21.9349 18.4143 21.8116C18.3373 21.7104 18.2636 21.5635 18.1933 21.3709C18.1347 21.2122 18.1083 21.0435 18.1155 20.8746C18.0705 20.6449 18.0264 20.4149 17.983 20.1846L18.0125 19.9709C18.0137 19.9623 18.0125 19.9528 18.0091 19.943C18.0056 19.9333 18 19.9235 17.9925 19.9144C17.9475 19.8592 17.9452 19.7998 17.9855 19.7361C18.0544 19.7068 18.078 19.6498 18.0565 19.5651C18.0344 19.4772 18.0232 19.3868 18.0233 19.2961C18.0233 19.2028 18.0527 19.1212 18.1115 19.0514C18.2614 18.8727 18.4589 18.7721 18.7043 18.7496ZM11.1738 18.9524L11.1678 18.9841C11.1699 18.9736 11.1719 18.963 11.1738 18.9524ZM20.674 19.0584C20.6286 19.0589 20.5834 19.0646 20.5393 19.0754C20.3819 19.1137 20.2219 19.1379 20.0593 19.1481C19.9284 19.1771 19.8954 19.2394 19.9603 19.3351C19.9659 19.3433 19.9737 19.35 19.9831 19.3547C19.9925 19.3593 20.0031 19.3617 20.014 19.3616C20.2552 19.3624 20.4933 19.3359 20.7283 19.2819C20.8371 19.2962 20.9276 19.2642 20.9998 19.1859C21.0469 19.1345 21.0357 19.1039 20.966 19.0939L20.751 19.0631C20.7255 19.0595 20.6998 19.058 20.674 19.0584ZM19.8303 19.8484C19.8311 19.8485 19.8319 19.8487 19.8328 19.8489C19.8312 19.8491 19.8297 19.8494 19.8283 19.8499C19.8289 19.8493 19.8296 19.8488 19.8303 19.8484ZM28.985 20.4304C28.939 20.6241 28.8925 20.8156 28.8425 20.9914H28.842C28.892 20.8156 28.939 20.6241 28.985 20.4304ZM17.9065 20.4991C17.9305 20.4984 17.9594 20.51 17.993 20.5339C17.9971 20.5366 18.0005 20.5403 18.0031 20.5444C18.0057 20.5486 18.0073 20.5533 18.008 20.5582C18.0086 20.5631 18.0082 20.5681 18.0068 20.5728C18.0054 20.5775 18.003 20.5819 17.9998 20.5856C17.9306 20.6706 17.8795 20.6756 17.8465 20.6006C17.842 20.5903 17.8398 20.5793 17.8402 20.5684C17.8405 20.5576 17.8434 20.5472 17.8485 20.5381C17.8632 20.5128 17.8825 20.4998 17.9065 20.4991ZM25.3575 20.8914C25.2815 20.981 25.2039 21.0673 25.1248 21.1501H25.1243C25.2036 21.0673 25.2814 20.981 25.3575 20.8914ZM8.26977 21.2049L8.27627 21.2054C8.27402 21.2049 8.27202 21.2056 8.26977 21.2054L8.25277 21.2059L8.26977 21.2049ZM24.7558 21.5104C24.5205 21.7273 24.2675 21.9243 23.9995 22.0991C23.8597 22.1908 23.7099 22.2816 23.55 22.3716V22.3711C23.7028 22.2856 23.8526 22.195 23.9993 22.0994C24.2673 21.9244 24.5205 21.7274 24.7558 21.5104ZM28.5235 22.0046C28.534 22.0463 28.5609 22.0818 28.6043 22.1111V22.1116C28.5649 22.0873 28.5361 22.0491 28.5235 22.0046ZM28.3963 22.2531H28.3968C28.3734 22.2829 28.3554 22.3178 28.3425 22.3576C28.3297 22.3976 28.3222 22.4425 28.32 22.4924C28.32 22.4934 28.3185 22.4956 28.3185 22.4966L28.3195 22.4924C28.322 22.4424 28.3297 22.3976 28.3425 22.3576C28.3552 22.3178 28.3731 22.2828 28.3963 22.2531ZM14.132 22.3936C14.2733 22.4592 14.4063 22.5414 14.528 22.6386V22.6394C14.4065 22.5417 14.2735 22.4592 14.132 22.3936ZM24.3288 22.8979C24.1545 23.0353 23.9695 23.1585 23.7755 23.2664V23.2659C23.9619 23.1634 24.1463 23.0405 24.3288 22.8979ZM14.0878 22.4446C14.1254 22.4464 14.1204 22.4854 14.0728 22.5616C13.8286 22.9473 13.6948 23.1862 13.6713 23.2784C13.633 23.4385 13.5401 23.5803 13.4085 23.6794C13.3824 23.7012 13.3498 23.7141 13.3158 23.7159C13.2413 23.719 13.2274 23.6749 13.2743 23.5836C13.3543 23.4953 13.411 23.3942 13.4445 23.2804C13.5205 23.0254 13.6171 22.7781 13.7343 22.5386C13.7509 22.4624 13.8029 22.4359 13.89 22.4591C13.9377 22.4723 13.9883 22.4709 14.0355 22.4551C14.0522 22.4484 14.0699 22.445 14.0878 22.4446ZM28.2648 22.6676C28.2288 22.7476 28.1758 22.8459 28.1033 22.9654C28.0976 22.9746 28.0946 22.9849 28.0946 22.9951C28.0946 23.0054 28.0976 23.0149 28.1033 23.0226C28.1394 23.0709 28.1914 23.0826 28.259 23.0576C28.1912 23.0826 28.1391 23.0711 28.1028 23.0231C28.097 23.0154 28.094 23.0058 28.094 22.9955C28.094 22.9853 28.097 22.9748 28.1028 22.9656C28.1749 22.8466 28.2289 22.7473 28.2648 22.6676ZM11.2095 22.9596C11.2725 22.9639 11.2809 22.9877 11.2345 23.0309C11.1091 23.1477 11.0216 23.2994 10.9833 23.4664C10.9761 23.4964 10.9436 23.532 10.8858 23.5734C10.8681 23.5854 10.8559 23.6036 10.8515 23.6241C10.8089 23.8202 10.7105 23.9998 10.5683 24.1414C10.5607 24.149 10.5513 24.1543 10.5413 24.1568C10.5314 24.1593 10.5212 24.1588 10.512 24.1554C10.429 24.125 10.4049 24.0599 10.4398 23.9601C10.4733 23.8629 10.5293 23.8037 10.6078 23.7824C10.6118 23.7812 10.6155 23.7792 10.6187 23.7765C10.6219 23.7739 10.6244 23.7707 10.6261 23.7671C10.6277 23.7635 10.6285 23.7598 10.6282 23.7561C10.628 23.7524 10.6268 23.7489 10.6248 23.7459L10.599 23.7051C10.5925 23.6955 10.5879 23.6854 10.5854 23.6753C10.583 23.6653 10.5827 23.6557 10.5848 23.6471C10.6144 23.5174 10.6623 23.3945 10.7283 23.2784C10.8104 23.0487 10.971 22.9424 11.2095 22.9596ZM19.6785 23.2491C19.8057 23.2691 19.9329 23.2887 20.0603 23.3079C20.0839 23.3115 20.1587 23.3129 20.2845 23.3121C20.1587 23.3131 20.0839 23.3119 20.0603 23.3084C19.9329 23.2889 19.8057 23.2691 19.6785 23.2491ZM27.883 23.3674C27.8587 23.4244 27.8426 23.4846 27.8353 23.5461L27.8343 23.5481L27.8348 23.5461C27.8436 23.4789 27.8597 23.4194 27.883 23.3674ZM1.73552 23.8561L1.85877 23.9736V23.9744L1.73577 23.8566C1.73577 23.8564 1.73552 23.8563 1.73552 23.8561ZM7.46477 23.8684C7.50894 23.8709 7.51677 23.8985 7.48827 23.9514C7.41144 24.0543 7.34265 24.1629 7.28252 24.2764C7.22447 24.3891 7.15583 24.4961 7.07752 24.5959C6.93702 24.7686 6.80358 24.947 6.67752 25.1306C6.64535 25.1604 6.6221 25.1614 6.60777 25.1334C6.6039 25.1252 6.6023 25.1153 6.60308 25.1044C6.60386 25.0936 6.607 25.0821 6.61227 25.0709C6.79727 24.6689 7.06127 24.2764 7.40427 23.8934C7.41174 23.885 7.42104 23.8784 7.43151 23.8741C7.44198 23.8698 7.45334 23.8678 7.46477 23.8684ZM21.8718 23.9724C21.4454 24.0641 21.0128 24.1239 20.5775 24.1511L20.6745 24.1961C20.6845 24.2008 20.693 24.2072 20.699 24.2143C20.7049 24.2215 20.708 24.2291 20.7078 24.2361C20.7063 24.3239 20.6754 24.4186 20.615 24.5201C20.5585 24.6159 20.5174 24.7539 20.4915 24.9341H20.491L20.4305 25.1641C20.4277 25.1741 20.4225 25.183 20.4154 25.1899C20.4083 25.1967 20.3997 25.2012 20.3905 25.2029L20.1633 25.2419C20.1527 25.2436 20.1422 25.2426 20.1327 25.2391C20.1233 25.2356 20.1154 25.2296 20.11 25.2219C20.06 25.1495 20.0532 25.0704 20.0895 24.9844H20.09C20.1009 24.963 20.1174 24.945 20.1377 24.9323C20.158 24.9196 20.1813 24.9126 20.2053 24.9121C20.2087 24.912 20.212 24.9111 20.2149 24.9094C20.2178 24.9076 20.2203 24.9052 20.222 24.9023C20.2237 24.8994 20.2247 24.896 20.2248 24.8926C20.2249 24.8892 20.2241 24.8859 20.2225 24.8829C20.1897 24.8124 20.2007 24.7333 20.2555 24.6456C20.3309 24.5248 20.3846 24.3918 20.4143 24.2526C20.425 24.222 20.4447 24.1954 20.4709 24.1763C20.497 24.1572 20.5284 24.1465 20.5608 24.1456L20.5775 24.1511C21.0128 24.1242 21.4455 24.0645 21.8718 23.9724ZM24.0898 24.1649C24.1039 24.1642 24.124 24.1729 24.15 24.1911C24.171 24.2057 24.1924 24.2133 24.21 24.2126L24.335 24.2071C24.3392 24.2069 24.3433 24.2075 24.3472 24.209C24.351 24.2104 24.3545 24.2126 24.3573 24.2154C24.3602 24.2182 24.3623 24.2215 24.3635 24.2252C24.3648 24.2288 24.3651 24.2326 24.3645 24.2364C24.3459 24.3372 24.2859 24.4087 24.1848 24.4509C24.1784 24.4535 24.1715 24.4549 24.1646 24.4548C24.1577 24.4547 24.1509 24.4532 24.1445 24.4504C24.1382 24.4476 24.1325 24.4436 24.1279 24.4385C24.1232 24.4334 24.1196 24.4274 24.1173 24.4209C24.0556 24.252 24.0464 24.1669 24.0898 24.1649ZM16.8615 24.3781L16.8778 24.3859L16.883 24.3899L16.8778 24.3864L16.8615 24.3781ZM24.012 24.4346C24.017 24.4309 24.024 24.4311 24.033 24.4351C24.0392 24.4376 24.0445 24.4429 24.0482 24.4503C24.052 24.4577 24.054 24.4669 24.054 24.4766C24.054 24.5689 24.1183 24.6066 24.2468 24.5896C24.2536 24.5888 24.2606 24.5895 24.2671 24.5917C24.2737 24.5939 24.2796 24.5976 24.2845 24.6024C24.2893 24.6072 24.293 24.6131 24.2952 24.6196C24.2973 24.626 24.298 24.6329 24.297 24.6396C24.2558 24.9136 24.194 25.1842 24.112 25.4489C24.0745 25.5702 24.0109 25.5614 23.921 25.4226C23.8913 25.3766 23.881 25.3209 23.8923 25.2676C23.9053 25.2059 23.9208 25.1169 23.9388 25.0006C23.9136 24.8308 23.9325 24.6574 23.9938 24.4971C23.9981 24.4843 24.001 24.4711 24.0023 24.4576C24.0034 24.4461 24.0067 24.4384 24.012 24.4346ZM17.2963 24.5866L17.3118 24.5919C17.3068 24.5899 17.3013 24.5889 17.2963 24.5866ZM19.4093 24.8751C19.4568 24.8784 19.4743 24.8801 19.5243 24.8834L19.5475 24.8884C19.5398 24.8866 19.5315 24.8859 19.5238 24.8839C19.453 24.8789 19.475 24.8796 19.4093 24.8751ZM19.8548 24.9436L19.8753 24.9464V24.9469L19.8548 24.9436ZM26.9425 25.0221C26.9219 25.0562 26.8973 25.0876 26.8693 25.1159C26.8173 25.167 26.7723 25.2247 26.7355 25.2876H26.735C26.7645 25.2343 26.8091 25.177 26.8688 25.1159C26.897 25.0877 26.9218 25.0562 26.9425 25.0221ZM15.0858 25.1394C15.1366 25.1332 15.195 25.1409 15.261 25.1626C15.2651 25.1639 15.2688 25.1661 15.2719 25.169C15.275 25.172 15.2775 25.1755 15.2791 25.1794C15.2807 25.1834 15.2814 25.1876 15.2813 25.1919C15.2811 25.1962 15.28 25.2003 15.278 25.2041C15.1551 25.4352 15.044 25.6723 14.945 25.9146C14.8122 26.2404 14.6189 26.5064 14.365 26.7126C14.2937 26.7701 14.2667 26.7538 14.284 26.6636C14.3094 26.5304 14.3664 26.4464 14.4553 26.4116C14.4594 26.41 14.4633 26.4075 14.4665 26.4045C14.4697 26.4015 14.4723 26.3978 14.4741 26.3939C14.4759 26.3899 14.4769 26.3857 14.4769 26.3814C14.477 26.3772 14.4762 26.373 14.4745 26.3691L14.437 26.2691C14.4289 26.249 14.4289 26.2269 14.437 26.2076C14.5788 25.8673 14.7531 25.5413 14.9573 25.2344C14.9956 25.1765 15.0384 25.1449 15.0858 25.1394ZM17.7488 25.4166C17.7966 25.4076 17.8093 25.4418 17.7868 25.5191C17.7452 25.6616 17.6957 25.8016 17.6385 25.9386C17.6247 25.9716 17.5872 26.0763 17.526 26.2526C17.4892 26.3589 17.4397 26.4604 17.3785 26.5549C17.3074 26.6659 17.2576 26.7363 17.2293 26.7661C17.1652 26.8315 17.0836 26.877 16.9943 26.8971C16.9156 26.9163 16.8963 26.8907 16.9363 26.8204C16.9503 26.7969 16.9769 26.7739 17.016 26.7516C17.0252 26.7463 17.0331 26.7392 17.0391 26.7308C17.045 26.7224 17.049 26.713 17.0505 26.7031C17.0908 26.4864 17.1711 26.2791 17.2873 26.0919C17.3234 25.9642 17.3765 25.8444 17.4465 25.7326C17.4875 25.6006 17.5684 25.5029 17.689 25.4396C17.7079 25.4294 17.7279 25.4217 17.7488 25.4166ZM22.6788 25.6129C22.4806 25.7409 22.2771 25.8603 22.0688 25.9709C22.0449 26.0782 22.014 26.1838 21.9763 26.2871C21.9414 26.3823 21.9156 26.4874 21.8988 26.6026C21.8626 26.8485 21.7745 27.0839 21.6403 27.2931C21.5691 27.4051 21.5114 27.3988 21.467 27.2741C21.4199 27.1413 21.433 26.9765 21.5065 26.7799C21.554 26.6519 21.5946 26.5217 21.6283 26.3894V26.3889C21.6889 26.214 21.7233 26.0969 21.7313 26.0376C21.7526 25.8818 21.8626 25.7876 22.0613 25.7551C22.0693 25.7538 22.0775 25.7547 22.0851 25.7577C22.0926 25.7607 22.0994 25.7657 22.1046 25.7723C22.1099 25.7789 22.1135 25.7867 22.1151 25.7952C22.1168 25.8037 22.1164 25.8125 22.114 25.8209L22.0688 25.9709C22.2774 25.8602 22.4804 25.7409 22.6788 25.6129ZM3.02577 25.6636C3.06714 25.6578 3.10924 25.66 3.14977 25.6701C3.2626 25.6978 3.32235 25.7121 3.32902 25.7131V25.7136C3.2691 25.7 3.20934 25.6857 3.14977 25.6706C3.10918 25.6609 3.06719 25.6585 3.02577 25.6636ZM3.62827 25.8301C3.68202 25.8576 3.73977 25.8886 3.77577 25.8991V25.8996C3.73952 25.8891 3.68227 25.8579 3.62827 25.8301ZM11.6873 25.9826C11.7002 25.9828 11.713 25.9861 11.7244 25.9922C11.7359 25.9983 11.7457 26.0069 11.7532 26.0175C11.7607 26.0281 11.7656 26.0403 11.7674 26.0532C11.7693 26.066 11.7681 26.0791 11.764 26.0914C11.7243 26.2113 11.6584 26.3209 11.571 26.4121C11.4462 26.5419 11.3463 26.6934 11.276 26.8591C11.2687 26.8763 11.2677 26.8987 11.2733 26.9224C11.2956 27.0147 11.2424 27.0942 11.1135 27.1609C11.0307 27.204 10.9822 27.1793 10.968 27.0866C10.9565 27.0116 10.9797 26.9092 11.0375 26.7794C11.2019 26.4062 11.316 26.1868 11.38 26.1211C11.4729 26.0261 11.5751 25.9799 11.6873 25.9826ZM21.3815 26.3491C21.3536 26.3552 21.3264 26.3644 21.3005 26.3766V26.3761C21.3275 26.3638 21.3545 26.3548 21.3815 26.3491ZM5.22302 26.3941C5.29052 26.4256 5.35827 26.4554 5.42302 26.4929V26.4934C5.35802 26.4559 5.29052 26.4256 5.22302 26.3941ZM19.5228 26.9024C19.6498 26.903 19.6724 26.9819 19.5905 27.1389H19.591C19.502 27.3064 19.4011 27.4674 19.2893 27.6206C19.2418 27.6856 19.1869 27.7836 19.1248 27.9146C19.0596 28.0535 18.9648 28.1763 18.847 28.2746C18.8397 28.2809 18.8304 28.2844 18.821 28.2845C18.8116 28.2845 18.8026 28.2812 18.7958 28.2751C18.7438 28.2288 18.7301 28.1695 18.7548 28.0974L19.2738 27.0046C19.2827 26.9855 19.2951 26.9687 19.3101 26.9554C19.3251 26.9421 19.3423 26.9327 19.3605 26.9279C19.4133 26.9125 19.4678 26.904 19.5228 26.9024ZM8.46427 27.1196C8.5236 27.1104 8.53485 27.1531 8.49802 27.2476C8.40765 27.486 8.27512 27.7062 8.10677 27.8976C8.08494 27.9226 8.0566 27.9882 8.02177 28.0944C7.9961 28.1444 7.94094 28.2238 7.85627 28.3326C7.71727 28.5109 7.65544 28.4761 7.67077 28.2281C7.83477 27.9353 7.93844 27.7278 7.98177 27.6056C8.05627 27.3946 8.19185 27.2416 8.38852 27.1466C8.41246 27.1343 8.43793 27.1251 8.46427 27.1196ZM24.8943 27.3761C24.8922 27.3836 24.8926 27.3915 24.8954 27.3987C24.8982 27.4059 24.9032 27.412 24.9098 27.4161C24.8958 27.4061 24.8906 27.3928 24.8943 27.3761ZM6.84227 27.6026C6.9506 27.6521 7.02594 27.6902 7.06827 27.7169C7.12627 27.7541 7.18027 27.7824 7.23527 27.8131C7.18027 27.7824 7.12627 27.7544 7.06827 27.7174C6.99515 27.6749 6.9197 27.6366 6.84227 27.6026ZM5.17902 27.6276C5.49552 27.8318 5.82135 28.0301 6.15652 28.2226C5.82558 28.0328 5.49964 27.8344 5.17902 27.6276ZM24.829 27.6589C24.8289 27.6589 24.8291 27.6589 24.829 27.6589ZM24.277 27.8716H24.2775C24.1882 27.9576 24.0982 28.0546 24.0075 28.1626C23.988 28.1868 23.9719 28.2129 23.9593 28.2409H23.9588C23.9717 28.2129 23.9881 28.1866 24.0075 28.1626C24.0979 28.0546 24.1877 27.9576 24.277 27.8716ZM8.23677 28.1319C8.2741 28.1455 8.31277 28.1549 8.35277 28.1599C8.4636 28.173 8.53944 28.1878 8.58027 28.2041C8.53944 28.1876 8.4636 28.173 8.35277 28.1604C8.3131 28.1555 8.27416 28.146 8.23677 28.1319ZM18.3743 28.1486C18.2376 28.2469 18.1039 28.3028 17.973 28.3161C18.1035 28.3024 18.2373 28.2466 18.3743 28.1486ZM14.0268 28.2331C14.1163 28.2396 14.1329 28.2896 14.0765 28.3831C14.0482 28.4311 14.0311 28.5019 14.0253 28.5956V28.5964C14.0079 28.6707 13.965 28.7365 13.904 28.7824C13.8861 28.7945 13.8716 28.8112 13.862 28.8306C13.7402 29.0865 13.5754 29.3195 13.3748 29.5196C13.3723 29.5223 13.3528 29.5473 13.3163 29.5946C13.2836 29.6366 13.2429 29.6458 13.1943 29.6221C13.1817 29.6158 13.1707 29.6069 13.1619 29.5959C13.1531 29.5849 13.1468 29.5721 13.1433 29.5584C13.1398 29.5446 13.1393 29.5302 13.1417 29.5161C13.1442 29.502 13.1496 29.4886 13.1575 29.4766L13.674 28.7131C13.7264 28.6551 13.7642 28.5882 13.7875 28.5124C13.821 28.4062 13.8804 28.3198 13.9655 28.2531C13.9837 28.2388 14.0056 28.2317 14.0268 28.2331ZM11.096 28.3464C11.1157 28.345 11.1375 28.3506 11.1585 28.3624C11.1924 28.381 11.2274 28.3949 11.2635 28.4039C11.2267 28.395 11.1912 28.3812 11.158 28.3629C11.1372 28.3512 11.1156 28.3456 11.096 28.3469V28.3464ZM11.3763 28.4164C11.6108 28.4602 11.8463 28.4977 12.0828 28.5289C12.3038 28.5111 12.5263 28.5264 12.7428 28.5744C12.8051 28.5877 12.8754 28.5918 12.9535 28.5866V28.5871C12.8831 28.5929 12.8122 28.5887 12.743 28.5746C12.5265 28.5268 12.304 28.5116 12.083 28.5296C11.8464 28.4983 11.6108 28.4607 11.3763 28.4164ZM9.51252 28.4596C9.51652 28.4603 9.52044 28.4611 9.52427 28.4621V28.4626L9.51252 28.4596ZM20.1965 28.5621C20.2797 28.5628 20.2847 28.6435 20.2115 28.8044C20.2077 28.8126 20.2016 28.8204 20.1936 28.8272C20.1855 28.8341 20.1758 28.8399 20.1648 28.8444C20.1054 28.8689 20.0864 28.9146 20.1078 28.9816C20.1368 29.0734 20.1144 29.1465 20.0408 29.2009C20.0331 29.2066 20.0274 29.2145 20.0245 29.2234C20.0215 29.2323 20.0214 29.2418 20.0243 29.2506C20.0698 29.3951 20.0312 29.5215 19.9085 29.6299C19.8311 29.6939 19.7408 29.7406 19.6438 29.7666C19.6546 29.5584 19.7048 29.3541 19.7918 29.1646C19.8141 28.9971 19.8681 28.8427 19.9538 28.7014C19.9868 28.6477 20.0313 28.6099 20.0873 28.5881C20.1323 28.5706 20.1687 28.5619 20.1965 28.5621ZM16.3603 28.6149C16.4044 28.6099 16.4501 28.6157 16.4973 28.6324C16.4959 28.6604 16.4694 28.7165 16.4178 28.8009C16.247 29.0801 16.0713 29.3564 15.891 29.6296C15.851 29.6893 15.8193 29.6855 15.7958 29.6184C15.7613 29.5225 15.7734 29.4284 15.8323 29.3359C15.9366 29.0942 16.0699 28.87 16.2323 28.6634H16.2328C16.2736 28.636 16.3161 28.6199 16.3603 28.6149ZM16.5828 28.6616C16.5644 28.6853 16.5482 28.6948 16.534 28.6901C16.548 28.6951 16.5643 28.6856 16.5828 28.6616ZM10.9568 28.7141C11.0078 28.6966 11.0374 28.7185 11.0458 28.7799C11.0628 28.903 11.0294 29.0137 10.9458 29.1119C10.8663 29.2045 10.8158 29.2745 10.7943 29.3219C10.7343 29.4549 10.6764 29.5887 10.6205 29.7234C10.5937 29.7875 10.5624 29.827 10.5268 29.8419C10.4793 29.8619 10.4229 29.8585 10.3578 29.8319C10.3499 29.8287 10.3426 29.8239 10.3366 29.8179C10.3305 29.8119 10.3256 29.8048 10.3223 29.7969C10.319 29.789 10.3173 29.7806 10.3172 29.772C10.3172 29.7635 10.3188 29.755 10.322 29.7471C10.4634 29.3964 10.6538 29.0674 10.8875 28.7701C10.905 28.7454 10.929 28.7261 10.9568 28.7141ZM22.8455 28.8926H22.846C22.8049 28.9369 22.7679 28.9849 22.7355 29.0359C22.7354 29.0359 22.7352 29.0359 22.735 29.0359C22.7674 28.9849 22.8044 28.9369 22.8455 28.8926ZM21.919 29.3996C21.9193 29.3996 21.9195 29.3996 21.9198 29.3996H21.919ZM7.91527 29.5079C7.92444 29.5192 7.93552 29.5288 7.94802 29.5364V29.5369C7.93557 29.5292 7.92432 29.5194 7.91527 29.5079ZM13.5433 31.3394C13.4528 31.3413 13.3626 31.351 13.2738 31.3684L13.2733 31.3679C13.3633 31.3505 13.4533 31.341 13.5433 31.3394Z" fill="#0B0B0F"/>
</svg>
